<svg width="74" height="74" viewBox="0 0 74 74" fill="none" xmlns="http://www.w3.org/2000/svg">
<path d="M67.8331 20.9665C67.8331 19.331 67.1834 17.7625 66.0269 16.606C64.8704 15.4495 63.3019 14.7998 61.6664 14.7998C60.0309 14.7998 58.4624 15.4495 57.3059 16.606C56.1494 17.7625 55.4997 19.331 55.4997 20.9665C54.1913 20.9665 52.9365 21.4862 52.0113 22.4114C51.0862 23.3366 50.5664 24.5914 50.5664 25.8998C50.5664 27.2082 51.0862 28.463 52.0113 29.3882C52.9365 30.3134 54.1913 30.8331 55.4997 30.8331H67.8331C69.1415 30.8331 70.3963 30.3134 71.3214 29.3882C72.2466 28.463 72.7664 27.2082 72.7664 25.8998C72.7664 24.5914 72.2466 23.3366 71.3214 22.4114C70.3963 21.4862 69.1415 20.9665 67.8331 20.9665Z" fill="#486CBC"/>
<path d="M36.9997 17.2664H35.7664V13.5665C35.7664 12.5852 35.3766 11.644 34.6827 10.9502C33.9888 10.2563 33.0477 9.86646 32.0664 9.86646L30.9079 11.025C30.4931 11.4397 30.0008 11.7687 29.4589 11.9931C28.917 12.2176 28.3362 12.3331 27.7497 12.3331C27.1632 12.3331 26.5824 12.2176 26.0405 11.9931C25.4987 11.7687 25.0063 11.4397 24.5916 11.025L23.4331 9.86646H17.2664L13.5664 13.5665V16.0331C13.5664 17.6686 14.2161 19.2371 15.3726 20.3936C16.529 21.5501 18.0976 22.1998 19.7331 22.1998H24.6664L26.6222 24.1556C27.0848 24.6182 27.7122 24.878 28.3664 24.878C29.0206 24.878 29.648 24.6182 30.1106 24.1556L30.8331 23.4331L36.9997 18.8081V17.2664Z" fill="#FFE19E"/>
<path d="M32.0661 1.23315H31.0081C29.3884 1.23315 27.7847 1.55216 26.2883 2.17197C24.792 2.79177 23.4323 3.70024 22.2871 4.84549L17.2661 9.86648H23.4328L24.5913 11.025C25.006 11.4397 25.4984 11.7687 26.0403 11.9932C26.5821 12.2176 27.1629 12.3331 27.7494 12.3331C28.336 12.3331 28.9167 12.2176 29.4586 11.9932C30.0005 11.7687 30.4928 11.4397 30.9076 11.025L32.0661 9.86648C33.0474 9.86648 33.9885 10.2563 34.6824 10.9502C35.3763 11.6441 35.7661 12.5852 35.7661 13.5665V18.4998C35.7661 19.6335 35.9894 20.7562 36.4233 21.8036C36.8571 22.8511 37.493 23.8028 38.2947 24.6045C39.0964 25.4062 40.0481 26.0421 41.0956 26.476C42.143 26.9098 43.2657 27.1331 44.3994 27.1331L44.3994 13.5665C44.3994 11.9468 44.0804 10.3431 43.4606 8.84671C42.8408 7.35037 41.9323 5.99075 40.7871 4.8455C39.6418 3.70024 38.2822 2.79178 36.7859 2.17197C35.2895 1.55216 33.6857 1.23315 32.0661 1.23315Z" fill="#E5B13B"/>
<path d="M57.9662 61.6664L48.2747 42.2835C47.4809 40.6958 46.2606 39.3605 44.7506 38.4273C43.2406 37.4941 41.5005 36.9998 39.7254 36.9998C38.4702 36.9998 37.2273 37.247 36.0676 37.7274C34.9079 38.2077 33.8542 38.9118 32.9666 39.7994L20.9662 51.7997H1.23291V55.5647C1.23291 60.1269 3.04523 64.5022 6.27117 67.7281C9.4971 70.9541 13.8724 72.7664 18.4346 72.7664C22.0449 72.7664 25.5638 71.6304 28.4926 69.5194C31.4215 67.4084 33.6119 64.4294 34.7536 61.0043L38.1279 50.8813L48.0995 67.8331L57.9662 61.6664Z" fill="#6E6E6E"/>
<path d="M41.6419 16.0331H39.7575C38.699 16.0331 37.6839 16.4536 36.9354 17.2021C36.1869 17.9505 35.7664 18.9657 35.7664 20.0242C35.7664 20.6438 35.9107 21.2549 36.1878 21.8091L36.6551 22.7439C36.8795 23.1926 36.9617 23.6992 36.8908 24.1959L36.0689 29.9486C35.985 30.5364 35.6918 31.0741 35.2432 31.4632C34.7947 31.8522 34.2208 32.0664 33.6271 32.0664H32.0664V39.4664H35.8665C37.5772 39.4664 39.2351 38.8737 40.558 37.7891C41.881 36.7046 42.7873 35.1951 43.1228 33.5177L44.3349 27.457C44.3779 27.242 44.4494 27.0337 44.5475 26.8376L45.2117 25.5091C45.4888 24.9549 45.6331 24.3438 45.6331 23.7242V20.0242C45.633 18.9657 45.2126 17.9505 44.4641 17.2021C43.7156 16.4536 42.7004 16.0331 41.6419 16.0331Z" fill="#FFE19E"/>
<path d="M20.9662 51.7997H20.9662C20.2851 51.7997 19.7329 52.3519 19.7329 53.033V55.4997C19.7329 56.1808 20.2851 56.733 20.9662 56.733H20.9662C21.6474 56.733 22.1996 56.1808 22.1996 55.4997V53.033C22.1996 52.3519 21.6474 51.7997 20.9662 51.7997Z" fill="#575757"/>
<path d="M63.5163 61.6664H57.9663L48.0996 67.833L49.2027 70.0393C49.6125 70.8587 50.2423 71.5479 51.0216 72.0296C51.801 72.5112 52.6991 72.7664 53.6152 72.7664H63.5163C64.2451 72.7664 64.9668 72.6228 65.6402 72.3439C66.3135 72.065 66.9253 71.6562 67.4407 71.1408C67.9561 70.6254 68.3649 70.0136 68.6438 69.3403C68.9227 68.6669 69.0663 67.9452 69.0662 67.2164C69.0663 66.4875 68.9227 65.7658 68.6438 65.0925C68.3649 64.4191 67.9561 63.8073 67.4407 63.2919C66.9253 62.7766 66.3135 62.3678 65.6402 62.0888C64.9668 61.8099 64.2451 61.6664 63.5163 61.6664Z" fill="#575757"/>
<path d="M7.39977 12.3331H4.93311C4.93531 10.3712 5.71566 8.49024 7.10295 7.10295C8.49024 5.71566 10.3712 4.93531 12.3331 4.93311V7.39977C11.0252 7.40125 9.7712 7.92149 8.84635 8.84635C7.92149 9.7712 7.40125 11.0252 7.39977 12.3331Z" fill="#AAE5CF"/>
<path d="M3.69957 7.39981H1.23291C1.23477 5.76488 1.88506 4.19745 3.04113 3.04138C4.1972 1.88531 5.76464 1.23501 7.39957 1.23315V3.69982C6.41861 3.70093 5.47815 4.0911 4.7845 4.78475C4.09086 5.47839 3.70068 6.41885 3.69957 7.39981Z" fill="#AAE5CF"/>
<path d="M65.2934 25.8018C65.1222 25.5759 65.0346 25.2977 65.0453 25.0145C65.0561 24.7313 65.1646 24.4606 65.3524 24.2483C65.9358 23.5981 66.3335 22.8029 66.5037 21.9461C66.5607 21.6686 66.7121 21.4194 66.932 21.2408C67.1519 21.0623 67.4269 20.9653 67.7101 20.9664C67.894 20.9671 68.0755 21.0088 68.2413 21.0883C68.4071 21.1679 68.5531 21.2833 68.6687 21.4264C68.7843 21.5694 68.8666 21.7363 68.9096 21.9151C68.9527 22.0939 68.9554 22.2801 68.9175 22.46C68.6614 23.7278 68.0729 24.9048 67.2124 25.8704C67.0912 26.0086 66.9408 26.1182 66.772 26.1912C66.6032 26.2641 66.4203 26.2985 66.2366 26.2919C66.0529 26.2854 65.8729 26.238 65.7097 26.1532C65.5466 26.0685 65.4043 25.9484 65.2934 25.8018Z" fill="#5B7BC3"/>
<path d="M60.2705 45.0116L58.1288 43.7879L62.0076 36.9998H57.2041L61.7966 27.8148L64.0027 28.918L61.1952 34.5331H66.2583L60.2705 45.0116Z" fill="#FFD168"/>
<path d="M35.7661 46.8664L35.7661 46.8664C35.1791 47.2117 34.9831 47.9676 35.3284 48.5547L36.5445 50.622C36.8898 51.2091 37.6457 51.4051 38.2328 51.0598C38.8199 50.7144 39.0159 49.9585 38.6705 49.3714L37.4545 47.3041C37.1091 46.717 36.3532 46.5211 35.7661 46.8664Z" fill="#575757"/>
<path d="M21.0293 18.1097L19.6665 22.1982C19.6886 22.1984 19.7105 22.1998 19.7327 22.1998H22.266L23.3694 18.8899L21.0293 18.1097Z" fill="#FFD168"/>
<path d="M30.5861 16.5264L28.6128 18.0063L32.0168 22.545L33.9901 21.065L30.5861 16.5264Z" fill="#FFD168"/>
<path d="M56.2261 20.7462L56.2057 20.7871C56.1305 20.9371 56.0874 21.1012 56.0791 21.2688C56.0708 21.4364 56.0976 21.6039 56.1576 21.7606C56.2177 21.9173 56.3097 22.0597 56.4278 22.1789C56.546 22.2981 56.6877 22.3913 56.8439 22.4527C57.3897 22.6669 57.877 23.0072 58.2661 23.4458C58.6552 23.8844 58.935 24.4088 59.0826 24.9763C59.1458 25.2375 59.2944 25.4703 59.5048 25.6376C59.7152 25.8049 59.9755 25.8972 60.2443 25.8998H60.3057C60.4908 25.8994 60.6732 25.8566 60.8392 25.7747C61.0051 25.6929 61.1501 25.5742 61.2632 25.4277C61.3762 25.2812 61.4542 25.1107 61.4912 24.9295C61.5283 24.7482 61.5233 24.5608 61.4769 24.3817C61.2333 23.4323 60.7678 22.5542 60.1186 21.8197C59.4695 21.0852 58.6553 20.5153 57.7429 20.1569C57.4621 20.0485 57.151 20.0488 56.8704 20.1578C56.5898 20.2668 56.3601 20.4766 56.2261 20.7462Z" fill="#5B7BC3"/>
<path d="M19.7329 22.1997C18.0974 22.1997 16.5289 21.55 15.3724 20.3936C14.2159 19.2371 13.5662 17.6686 13.5662 16.0331V13.5664L6.65142 20.4812C3.18201 23.9506 1.23291 28.6562 1.23291 33.5627V51.7997H20.9662V41.7085C21.2868 41.8556 21.6352 41.9322 21.9879 41.933H32.0662V30.8331H24.8643C24.4295 30.833 24.0024 30.7181 23.6263 30.4998C23.2502 30.2816 22.9384 29.9678 22.7227 29.5902L20.9662 26.5164V22.1997H19.7329Z" fill="#31C292"/>
<path d="M63.5162 60.4331H58.7284L49.3779 41.7319C48.1328 39.2345 45.9661 37.3183 43.3352 36.3878C43.8099 35.5726 44.1467 34.6846 44.332 33.7597L45.544 27.6993C45.5656 27.5917 45.6013 27.4875 45.6503 27.3893L46.3146 26.0607C46.6764 25.3349 46.8652 24.5352 46.8662 23.7243V20.0243C46.8671 18.7915 46.43 17.5985 45.6329 16.6581V13.5665C45.6288 9.9696 44.1982 6.52123 41.6548 3.97787C39.1114 1.43451 35.6631 0.0038692 32.0662 -0.000193662H31.0082C29.2259 -0.00507151 27.4603 0.343611 25.8136 1.02567C24.167 1.70773 22.672 2.70963 21.4151 3.97336L5.77932 19.6091C3.94118 21.4372 2.48389 23.6118 1.49179 26.007C0.499703 28.4022 -0.00748585 30.9703 -0.000415363 33.5628V55.5648C-0.000387937 59.9422 1.55727 64.1767 4.39385 67.5107C7.23042 70.8447 11.1608 73.0605 15.4816 73.7617C19.8025 74.4629 24.2319 73.6036 27.9772 71.3378C31.7225 69.0719 34.5393 65.5472 35.9236 61.3945L38.4402 53.8447L47.0153 68.4225L48.0995 70.5909C48.6086 71.6177 49.3951 72.4813 50.37 73.0838C51.3449 73.6863 52.4691 74.0036 53.6151 73.9997H63.5162C65.3152 73.9997 67.0406 73.285 68.3127 72.0129C69.5848 70.7408 70.2995 69.0154 70.2995 67.2164C70.2995 65.4173 69.5848 63.692 68.3127 62.4199C67.0406 61.1477 65.3152 60.4331 63.5162 60.4331ZM44.3995 20.0243V23.7243C44.399 24.1523 44.2994 24.5744 44.1084 24.9575L43.4441 26.2861C43.2971 26.5803 43.1899 26.8927 43.1253 27.2152L41.9132 33.2758C41.6307 34.6723 40.8746 35.9283 39.7728 36.8316C38.671 37.7349 37.2911 38.2299 35.8663 38.2331H33.2995V33.2998H33.6269C34.5165 33.296 35.3753 32.9734 36.0473 32.3905C36.7194 31.8076 37.1602 31.0031 37.2897 30.1229L38.1115 24.3705C38.219 23.6253 38.0957 22.8651 37.758 22.1922L37.2906 21.2575C37.0804 20.837 36.9812 20.3698 37.0023 19.9002C37.0235 19.4306 37.1643 18.9742 37.4115 18.5743C37.6586 18.1745 38.0039 17.8444 38.4144 17.6155C38.825 17.3866 39.2873 17.2664 39.7574 17.2665H41.6417C42.3729 17.2673 43.0739 17.5581 43.5909 18.0751C44.1079 18.5921 44.3987 19.2931 44.3995 20.0243ZM24.8644 29.5998C24.647 29.5995 24.4335 29.5419 24.2455 29.4328C24.0575 29.3237 23.9016 29.167 23.7935 28.9784L20.6247 23.4331H24.1554L25.75 25.0278C26.0936 25.3713 26.5014 25.6439 26.9503 25.8298C27.3992 26.0157 27.8803 26.1115 28.3662 26.1115C28.8521 26.1115 29.3332 26.0157 29.7821 25.8298C30.231 25.6439 30.6389 25.3713 30.9825 25.0278L31.643 24.3671L34.8948 21.9283C34.9521 22.075 35.014 22.2199 35.0844 22.3607L35.5518 23.2955C35.6643 23.5198 35.7054 23.7731 35.6696 24.0215L34.8478 29.7743C34.8046 30.0676 34.6577 30.3358 34.4336 30.53C34.2096 30.7243 33.9234 30.8318 33.6269 30.8331H33.2995V29.5998H24.8644ZM23.1593 5.71767C24.1876 4.68368 25.4108 3.86392 26.7581 3.30585C28.1053 2.74778 29.5499 2.46248 31.0082 2.46647H32.0662C35.0091 2.46978 37.8305 3.64031 39.9114 5.72124C41.9924 7.80218 43.1629 10.6236 43.1662 13.5665V15.0273C42.6721 14.8762 42.1583 14.7996 41.6417 14.7998H39.7574C38.7821 14.7989 37.8264 15.0727 36.9995 15.5898V13.5665C36.9981 12.2585 36.4778 11.0046 35.553 10.0797C34.6281 9.15485 33.3742 8.63461 32.0662 8.63313H31.5554L30.0356 10.153C29.4292 10.7592 28.6069 11.0998 27.7495 11.0998C26.8921 11.0998 26.0698 10.7591 25.4635 10.1528L23.9437 8.63313H20.2438L23.1593 5.71767ZM14.7996 14.0773L17.7771 11.0998H22.9221L23.7192 11.897C24.2485 12.4262 24.8768 12.8461 25.5683 13.1326C26.2598 13.419 27.001 13.5664 27.7495 13.5665C28.498 13.5665 29.2391 13.4191 29.9307 13.1326C30.6222 12.8462 31.2505 12.4264 31.7798 11.8971L32.5328 11.1441C33.0954 11.2532 33.6025 11.5546 33.9673 11.9965C34.3322 12.4384 34.5321 12.9934 34.5329 13.5665V19.1164L33.2502 20.0784L30.5862 16.5265L28.6129 18.0064L31.2769 21.5584L30.0228 22.4991L29.2383 23.2835C29.0068 23.5144 28.6932 23.6441 28.3662 23.6441C28.0392 23.6441 27.7256 23.5144 27.4941 23.2835L25.177 20.9664H22.6774L23.3696 18.8899L21.0295 18.1097L20.0773 20.9664H19.7329C18.425 20.965 17.171 20.4447 16.2461 19.5199C15.3213 18.595 14.8011 17.3411 14.7996 16.0331V14.0773ZM2.46625 33.5628C2.46006 31.2944 2.90384 29.0473 3.77192 26.9515C4.63999 24.8558 5.91512 22.953 7.52348 21.3534L12.3511 16.5257C12.4534 18.0284 13.011 19.4642 13.9495 20.6422C14.888 21.8202 16.163 22.6844 17.6049 23.1198L21.6518 30.2023C21.9761 30.768 22.4439 31.2382 23.0079 31.5655C23.5719 31.8928 24.2123 32.0656 24.8644 32.0664H30.8329V40.6998H21.988C21.8259 40.7002 21.6654 40.6685 21.5157 40.6065C21.366 40.5444 21.2301 40.4533 21.1158 40.3384L15.6716 34.8943L13.9275 36.6386L19.3716 42.0827C19.4852 42.1958 19.6059 42.3016 19.7329 42.3993V50.5664H2.46625V33.5628ZM27.8553 43.1664L22.1996 48.8222V43.1664H27.8553ZM48.5202 66.1157L36.8293 46.241L34.7032 47.4917L36.7806 51.0233L33.5836 60.6143C32.3845 64.2114 29.9446 67.2645 26.7005 69.2272C23.4563 71.19 19.6196 71.9342 15.8768 71.3269C12.1341 70.7195 8.7296 68.8002 6.27256 65.9123C3.81552 63.0244 2.46627 59.3565 2.46625 55.5648V53.0331H19.7329V56.7331H22.1996V52.3106L31.3438 43.1664H33.2995V40.6998H35.8663C38.0073 40.6975 40.071 39.8992 41.6562 38.46C42.8399 38.7408 43.9474 39.2782 44.9005 40.0343C45.8536 40.7903 46.6289 41.7465 47.1717 42.8352L56.3615 61.2149L48.5202 66.1157ZM63.5162 71.5331H53.6151C52.9275 71.5354 52.253 71.345 51.668 70.9834C51.0831 70.6219 50.6112 70.1037 50.3057 69.4876L49.7042 68.2846L58.3199 62.8997H63.5162C64.661 62.8997 65.759 63.3545 66.5685 64.1641C67.378 64.9736 67.8328 66.0715 67.8328 67.2164C67.8328 68.3612 67.378 69.4592 66.5685 70.2687C65.759 71.0783 64.661 71.5331 63.5162 71.5331Z" fill="#252525"/>
<path d="M4.93311 12.3331H7.39977C7.40125 11.0252 7.92149 9.7712 8.84635 8.84635C9.7712 7.92149 11.0252 7.40125 12.3331 7.39977V4.93311C10.3712 4.93531 8.49024 5.71566 7.10295 7.10295C5.71566 8.49024 4.93531 10.3712 4.93311 12.3331Z" fill="#252525"/>
<path d="M7.39957 3.69982V1.23315C5.76464 1.23501 4.1972 1.88531 3.04113 3.04138C1.88506 4.19745 1.23477 5.76488 1.23291 7.39981H3.69957C3.70068 6.41885 4.09086 5.47839 4.7845 4.78475C5.47815 4.0911 6.41861 3.70093 7.39957 3.69982Z" fill="#252525"/>
<path d="M68.981 19.8419C68.7122 18.0946 67.8269 16.5013 66.4852 15.3503C65.1435 14.1992 63.4341 13.5664 61.6663 13.5664C59.8986 13.5664 58.1892 14.1992 56.8475 15.3503C55.5058 16.5013 54.6204 18.0946 54.3516 19.8419C52.8428 20.1277 51.4949 20.9661 50.5717 22.1933C49.6485 23.4204 49.2164 24.9479 49.36 26.4768C49.5036 28.0057 50.2125 29.426 51.3481 30.4598C52.4836 31.4936 53.964 32.0665 55.4997 32.0664H57.9663V29.5997H55.4997C54.7679 29.5997 54.0525 29.3827 53.4441 28.9762C52.8356 28.5696 52.3614 27.9917 52.0813 27.3157C51.8013 26.6396 51.728 25.8956 51.8708 25.1779C52.0135 24.4602 52.3659 23.8009 52.8834 23.2834C53.4008 22.766 54.0601 22.4136 54.7779 22.2708C55.4956 22.1281 56.2395 22.2013 56.9156 22.4814C57.5917 22.7614 58.1696 23.2357 58.5761 23.8441C58.9827 24.4526 59.1997 25.1679 59.1997 25.8997H61.6663C61.6644 24.5002 61.1871 23.1428 60.3128 22.05C59.4385 20.9572 58.2189 20.1938 56.8539 19.8847C57.0283 19.1094 57.3874 18.3876 57.9007 17.7809C58.4139 17.1742 59.0662 16.7005 59.8019 16.4C60.5377 16.0996 61.3351 15.9814 62.1264 16.0554C62.9176 16.1295 63.6793 16.3936 64.3465 16.8253C65.0137 17.2571 65.5668 17.8436 65.9585 18.535C66.3503 19.2264 66.5693 20.0023 66.5967 20.7965C66.6242 21.5908 66.4593 22.3799 66.1162 23.0967C65.7731 23.8135 65.2619 24.4368 64.6261 24.9136L66.1077 26.8859C67.5828 25.787 68.5913 24.1741 68.9334 22.3668C69.7782 22.63 70.5007 23.1872 70.9699 23.9375C71.4392 24.6877 71.624 25.5812 71.4909 26.456C71.3578 27.3309 70.9156 28.129 70.2445 28.7058C69.5734 29.2825 68.7179 29.5997 67.833 29.5997H65.3663V32.0664H67.833C69.3686 32.0665 70.8491 31.4936 71.9846 30.4598C73.1201 29.426 73.8291 28.0057 73.9727 26.4768C74.1162 24.9479 73.6842 23.4204 72.7609 22.1933C71.8377 20.9661 70.4898 20.1277 68.981 19.8419Z" fill="#252525"/>
<path d="M61.7966 27.8148L57.2041 36.9998H62.0076L58.1288 43.7879L60.2705 45.0116L66.2583 34.5331H61.1952L64.0027 28.918L61.7966 27.8148Z" fill="#252525"/>
</svg>
