<svg width="74" height="74" viewBox="0 0 74 74" fill="none" xmlns="http://www.w3.org/2000/svg">
<g clip-path="url(#clip0_2053_243)">
<path d="M14.2111 41.2264L7.79796 59.4615L5.41797 61.8415L15.8475 72.271L29.8358 58.2827L40.0959 39.9465L22.7715 36.3839C19.1091 35.6303 15.4518 37.6993 14.2111 41.2264Z" fill="#FFCBBE"/>
<path d="M23.948 54.3295L24.3679 54.7494L35.0918 44.0254L31.5592 40.4928L23.9479 48.1041C22.2289 49.8232 22.2289 52.6104 23.948 54.3295Z" fill="#EAAC9D"/>
<path d="M61.9735 41.7858C71.1427 32.6166 70.7 17.3075 60.9846 7.59212C51.2691 -2.1233 35.9601 -2.56606 26.7909 6.60319C17.6216 15.7724 18.0644 31.0815 27.7798 40.7969C37.4952 50.5123 52.8042 50.9551 61.9735 41.7858Z" fill="#DD636E"/>
<path d="M48.6499 48.2127C41.3661 49.0881 33.5804 46.5912 27.7839 40.7964C18.0671 31.0795 17.625 15.7689 26.7953 6.59854C31.9187 1.47505 38.9569 -0.648115 45.8671 0.170799C40.9373 0.761932 36.2353 2.89709 32.5337 6.59854C23.3619 15.7689 23.8056 31.0795 33.5223 40.7964C37.8119 45.0859 43.1901 47.5665 48.6499 48.2127Z" fill="#DA4A54"/>
<path d="M48.357 24.1925L57.7527 14.7968C58.8482 13.7013 58.8482 11.925 57.7527 10.8293C56.6571 9.73359 54.8808 9.73374 53.7852 10.8293L44.3895 20.225L34.9938 10.8293C33.8982 9.73374 32.1219 9.73374 31.0263 10.8293C29.9307 11.9248 29.9307 13.7011 31.0263 14.7968L40.4219 24.1925L31.0263 33.5882C29.9307 34.6837 29.9307 36.46 31.0263 37.5557C31.574 38.1035 32.2921 38.3774 33.0099 38.3774C33.728 38.3774 34.4459 38.1035 34.9936 37.5557L44.3893 28.16L53.785 37.5557C54.3328 38.1035 55.0507 38.3774 55.7687 38.3774C56.4867 38.3774 57.2046 38.1035 57.7524 37.5557C58.8479 36.4602 58.8479 34.6839 57.7524 33.5882L48.357 24.1925Z" fill="#F9F6F9"/>
<path d="M39.9656 37.3857L10.4639 66.8875L17.5763 73.9999L21.4714 70.1048L25.0124 70.1706C31.9098 70.297 37.7385 65.0904 38.3899 58.2246L38.7504 54.4143L47.8723 45.2924C48.9637 44.201 49.5087 42.7706 49.51 41.3403C49.51 39.9088 48.9637 38.4772 47.8723 37.3858C45.6895 35.203 42.1484 35.203 39.9656 37.3857Z" fill="#FFCBBE"/>
<path d="M36.2007 52.1733C35.3623 61.0296 27.8426 67.745 18.9483 67.5818L15.0532 71.4769L17.5763 74L21.4714 70.1049L25.0124 70.1706C31.9099 70.2971 37.7386 65.0905 38.39 58.2247L38.7504 54.4144L47.8724 45.2925C48.9637 44.2011 49.5088 42.7707 49.5101 41.3404C49.5101 39.9088 48.965 38.4786 47.8724 37.3859C47.431 36.9445 46.9352 36.593 46.4067 36.33C46.7936 37.1114 46.986 37.9639 46.9858 38.8162C46.9858 40.2478 46.4408 41.678 45.3494 42.7695L36.2275 51.8915L36.2007 52.1733Z" fill="#EAAC9D"/>
</g>
<defs>
<clipPath id="clip0_2053_243">
<rect width="74" height="74" fill="white"/>
</clipPath>
</defs>
</svg>
