<svg width="74" height="74" viewBox="0 0 74 74" fill="none" xmlns="http://www.w3.org/2000/svg">
<path d="M39.694 33.7279L29.0449 19.7141L33.7856 13.4935C32.171 11.7844 30.2245 10.423 28.0653 9.49248C25.9062 8.56198 23.5798 8.08203 21.2287 8.08203C18.8776 8.08203 16.5512 8.56198 14.392 9.49248C12.2329 10.423 10.2864 11.7844 8.6718 13.4935C5.32919 17.0364 3.46729 21.723 3.46729 26.5938C3.46729 31.4646 5.32919 36.1512 8.6718 39.6941L33.8087 65.9063L38.8615 60.6454L29.0449 47.73L39.694 33.7279Z" fill="#D94452"/>
<path d="M65.3279 13.5166C63.7077 11.8128 61.7582 10.4563 59.5976 9.52934C57.437 8.60239 55.1105 8.12439 52.7594 8.12439C50.4084 8.12439 48.0819 8.60239 45.9213 9.52934C43.7607 10.4563 41.8111 11.8128 40.191 13.5166L35.4619 19.7372L46.0994 33.7509L35.4619 47.7531L45.2669 60.6684L65.3279 39.7172C68.6705 36.1743 70.5324 31.4877 70.5324 26.6169C70.5324 21.746 68.6705 17.0594 65.3279 13.5166Z" fill="#D94452"/>
</svg>
