<svg width="74" height="74" viewBox="0 0 74 74" fill="none" xmlns="http://www.w3.org/2000/svg">
<mask id="mask0_2053_252" style="mask-type:luminance" maskUnits="userSpaceOnUse" x="0" y="0" width="74" height="74">
<path d="M0 7.62939e-06H74V74H0V7.62939e-06Z" fill="white"/>
</mask>
<g mask="url(#mask0_2053_252)">
<path d="M60.7995 22.7975C60.0754 20.1163 57.6275 18.1429 54.7174 18.1429C52.7989 18.1429 51.082 19.0014 49.9262 20.3539C49.6429 20.2486 49.3375 20.188 49.0175 20.188C47.6116 20.188 46.4685 21.3006 46.4129 22.6929C44.3318 22.8523 42.6924 24.5903 42.6924 26.7123C42.6924 28.9395 44.4979 30.745 46.7249 30.745H59.8313C62.0584 30.745 63.8639 28.9395 63.8639 26.7123C63.8639 24.8191 62.5589 23.2312 60.7995 22.7975Z" fill="#B2E5FB"/>
<path d="M13.2001 28.503C13.9242 25.8218 16.3723 23.8483 19.2824 23.8483C21.2008 23.8483 22.9178 24.7068 24.0735 26.0594C24.3569 25.954 24.6621 25.8934 24.9823 25.8934C26.3881 25.8934 27.5312 27.006 27.5869 28.3983C29.668 28.5577 31.3074 30.2957 31.3074 32.4177C31.3074 34.645 29.5019 36.4504 27.2747 36.4504H14.1685C11.9414 36.4504 10.1357 34.645 10.1357 32.4177C10.1357 30.5245 11.4409 28.9367 13.2001 28.503Z" fill="#B2E5FB"/>
<path d="M60.3597 72.916V66.2676C60.3597 60.9079 56.7121 56.2361 51.5125 54.9362L42.8396 52.7681H31.1596L22.4868 54.9362C17.2873 56.2361 13.6396 60.9079 13.6396 66.2676V72.916H60.3597Z" fill="#62A4FB"/>
<path d="M47.4474 53.9199L42.8398 52.768H31.1598L26.5522 53.9199C27.1279 59.1761 31.5929 63.28 36.9998 63.28C42.4067 63.28 46.8717 59.1761 47.4474 53.9199Z" fill="#E6F7FE"/>
<path d="M51.5126 54.9362L51.309 54.8853C49.7871 59.6504 46.934 64.4015 42.8376 68.4981C41.1526 70.1831 39.357 71.6577 37.4951 72.916H60.3598V66.2674C60.3598 60.9079 56.7123 56.2361 51.5126 54.9362Z" fill="#5392F9"/>
<path d="M36.9997 58.608C33.7744 58.608 31.1597 55.9935 31.1597 52.7681V46.052H42.8397V52.7681C42.8397 55.9935 40.225 58.608 36.9997 58.608Z" fill="#FFBD86"/>
<path d="M31.1597 50.5184C32.998 51.1246 34.961 51.454 36.9997 51.454C39.0384 51.454 41.0014 51.1246 42.8397 50.5184V46.052H31.1597V50.5184Z" fill="#F6A96C"/>
<path d="M22.3999 18.458V32.766C22.3999 40.8294 28.9366 47.366 36.9999 47.366C45.0633 47.366 51.6 40.8294 51.6 32.766V18.458H22.3999Z" fill="#FED2A4"/>
<path d="M45.7596 18.458V32.766C45.7596 39.8292 40.7438 45.7209 34.0796 47.0737C35.0231 47.2651 35.9997 47.366 36.9997 47.366C45.0631 47.366 51.5997 40.8294 51.5997 32.766V18.458H45.7596Z" fill="#FFBD86"/>
<path d="M19.48 18.604V25.466H22.3999V32.766L24.1194 29.4766C25.1265 27.5499 27.1208 26.342 29.295 26.342H32.036C40.9732 26.342 44.2999 19.6259 44.2999 19.6259H44.9465C46.049 19.6259 47.0343 20.3142 47.4138 21.3493L51.6 32.766V25.466H54.52V18.604C54.52 8.92802 46.676 1.08402 37.0001 1.08402C27.324 1.08402 19.48 8.92788 19.48 18.604Z" fill="#B36D3C"/>
<path d="M54.5198 25.466V18.604C54.5198 12.0379 50.9071 6.31648 45.5616 3.31631C45.7366 8.59921 44.3147 17.7675 34.4888 26.1626C41.5887 25.0969 44.2997 19.6259 44.2997 19.6259H44.9463C46.0488 19.6259 47.0341 20.3142 47.4136 21.3493L51.5998 32.766V25.466H54.5198Z" fill="#995E34"/>
<path d="M53.0597 32.766H51.5996V24.0061H53.0597C55.4785 24.0061 57.4397 25.967 57.4397 28.386C57.4397 30.805 55.4785 32.766 53.0597 32.766Z" fill="#EA9B58"/>
<path d="M20.9401 32.766H22.4001V24.0061H20.9401C18.5211 24.0061 16.5601 25.967 16.5601 28.386C16.5601 30.805 18.5211 32.766 20.9401 32.766Z" fill="#EA9B58"/>
<path d="M34.4531 7.33488C33.4807 3.73417 30.1931 1.0839 26.2849 1.0839C23.7085 1.0839 21.4027 2.23697 19.8506 4.05315C19.47 3.91166 19.0601 3.83043 18.6303 3.83043C16.7421 3.83043 15.2071 5.3246 15.1325 7.1944C12.3375 7.40845 10.1357 9.74248 10.1357 12.5922C10.1357 15.5833 12.5605 18.0079 15.5515 18.0079H33.1526C36.1437 18.0079 38.5684 15.5833 38.5684 12.5922C38.5684 10.0498 36.8159 7.91749 34.4531 7.33488Z" fill="#E6F7FE"/>
<path d="M34.4532 7.33488C33.9291 5.39426 32.7318 3.73071 31.128 2.60842C30.3124 5.97079 28.0113 9.88904 24.5358 13.3644C22.6095 15.2909 20.5469 16.8553 18.5181 18.0079H33.1527C36.1438 18.0079 38.5685 15.5833 38.5685 12.5922C38.5685 10.0498 36.8159 7.91749 34.4532 7.33488Z" fill="#D3EFFD"/>
<path d="M60.7995 5.80154C60.0754 3.12034 57.6275 1.14691 54.7174 1.14691C52.7989 1.14691 51.082 2.00543 49.9262 3.35795C49.6429 3.25259 49.3375 3.19203 49.0175 3.19203C47.6116 3.19203 46.4685 4.30463 46.4129 5.6969C44.3318 5.85632 42.6924 7.59431 42.6924 9.71631C42.6924 11.9435 44.4979 13.749 46.7249 13.749H59.8313C62.0584 13.749 63.8639 11.9435 63.8639 9.71631C63.8639 7.8231 62.5589 6.23528 60.7995 5.80154Z" fill="#E6F7FE"/>
<path d="M60.7993 5.80154C60.4091 4.35652 59.5176 3.11788 58.3234 2.28206C57.716 4.78578 56.0026 7.70343 53.4146 10.2913C51.9802 11.7257 50.4442 12.8907 48.9336 13.749H59.8311C62.0582 13.749 63.8637 11.9435 63.8637 9.71631C63.8637 7.8231 62.5587 6.23528 60.7993 5.80154Z" fill="#D3EFFD"/>
<path d="M42.7643 10.4787L36.7723 5.7731L30.2606 12.9116L32.5236 14.6889L26.7065 22.2534L39.8119 15.7911L37.2937 13.4931L42.7643 10.4787Z" fill="#F8E883"/>
<path d="M54.6074 18.1438C54.6441 18.143 54.6813 18.1425 54.7184 18.1425C57.628 18.1425 60.0765 20.1164 60.8007 22.797C62.56 23.2306 63.8638 24.8192 63.8638 26.7128C63.8638 28.9393 62.0593 30.7452 59.8312 30.7452H56.8936" stroke="#252525" stroke-width="2" stroke-miterlimit="10" stroke-linecap="round" stroke-linejoin="round"/>
<path d="M22.7228 36.4507H14.1683C11.9402 36.4507 10.1357 34.6446 10.1357 32.4181C10.1357 30.5246 11.4396 28.9361 13.1988 28.5025C13.9229 25.8219 16.3714 23.848 19.2812 23.848C19.3182 23.848 19.3552 23.8484 19.3921 23.8493" stroke="#252525" stroke-width="2" stroke-miterlimit="10" stroke-linecap="round" stroke-linejoin="round"/>
<path d="M26.5522 53.9199C27.1279 59.1761 31.5929 63.28 36.9998 63.28C42.4067 63.28 46.8717 59.1761 47.4474 53.9199" stroke="#252525" stroke-width="2" stroke-miterlimit="10" stroke-linecap="round" stroke-linejoin="round"/>
<path d="M42.8403 52.7684L51.5122 54.9364C53.0905 55.3309 54.5242 56.0348 55.7571 56.9757" stroke="#252525" stroke-width="2" stroke-miterlimit="10" stroke-linecap="round" stroke-linejoin="round"/>
<path d="M59.009 60.8144C59.8762 62.4548 60.3603 64.315 60.3603 66.2676V72.916H13.6392V66.2676C13.6392 60.9084 17.2871 56.2357 22.4874 54.9363L31.1592 52.7684" stroke="#252525" stroke-width="2" stroke-miterlimit="10" stroke-linecap="round" stroke-linejoin="round"/>
<path d="M42.8397 46.1499V52.7681C42.8397 55.9932 40.2248 58.608 36.9997 58.608C33.7745 58.608 31.1597 55.9932 31.1597 52.7681V46.1499" stroke="#252525" stroke-width="2" stroke-miterlimit="10" stroke-linecap="round" stroke-linejoin="round"/>
<path d="M26.8726 43.2813C29.4972 45.812 33.0672 47.3657 36.9999 47.3657C45.0633 47.3657 51.6003 40.83 51.6003 32.7666" stroke="#252525" stroke-width="2" stroke-miterlimit="10" stroke-linecap="round" stroke-linejoin="round"/>
<path d="M23.8939 39.2056C22.9371 37.2631 22.3994 35.0778 22.3994 32.7667" stroke="#252525" stroke-width="2" stroke-miterlimit="10" stroke-linecap="round" stroke-linejoin="round"/>
<path d="M30.6245 2.28072C32.6003 1.50748 34.7494 1.084 36.9998 1.084C40.7027 1.084 44.1367 2.23303 46.9652 4.19287" stroke="#252525" stroke-width="2" stroke-miterlimit="10" stroke-linecap="round" stroke-linejoin="round"/>
<path d="M19.48 24.1526V18.604C19.48 18.4046 19.4829 18.2066 19.4915 18.0086" stroke="#252525" stroke-width="2" stroke-miterlimit="10" stroke-linecap="round" stroke-linejoin="round"/>
<path d="M53.8379 13.7492C54.283 15.2914 54.5201 16.9188 54.5201 18.604V24.1526" stroke="#252525" stroke-width="2" stroke-miterlimit="10" stroke-linecap="round" stroke-linejoin="round"/>
<path d="M22.3999 32.766L24.1192 29.4766C25.1265 27.5499 27.1207 26.342 29.2949 26.342H32.0358C40.9732 26.342 44.2999 19.6259 44.2999 19.6259H44.9465C46.0488 19.6259 47.0342 20.3142 47.4138 21.3493L51.6 32.766" stroke="#252525" stroke-width="2" stroke-miterlimit="10" stroke-linecap="round" stroke-linejoin="round"/>
<path d="M53.0597 32.766H51.5996V24.0061H53.0597C55.4785 24.0061 57.4397 25.967 57.4397 28.386C57.4397 30.805 55.4785 32.766 53.0597 32.766Z" stroke="#252525" stroke-width="2" stroke-miterlimit="10" stroke-linecap="round" stroke-linejoin="round"/>
<path d="M20.9401 32.766H22.4001V24.0061H20.9401C18.5211 24.0061 16.5601 25.967 16.5601 28.386C16.5601 30.805 18.5211 32.766 20.9401 32.766Z" stroke="#252525" stroke-width="2" stroke-miterlimit="10" stroke-linecap="round" stroke-linejoin="round"/>
<path d="M50.1401 72.916V68.244" stroke="#252525" stroke-width="2" stroke-miterlimit="10" stroke-linecap="round" stroke-linejoin="round"/>
<path d="M23.8599 72.916V68.244" stroke="#252525" stroke-width="2" stroke-miterlimit="10" stroke-linecap="round" stroke-linejoin="round"/>
<path d="M33.729 42.3966C35.5354 40.5903 38.464 40.5903 40.2702 42.3966" stroke="#252525" stroke-width="2" stroke-miterlimit="10" stroke-linecap="round" stroke-linejoin="round"/>
<path d="M29.9714 18.0083H15.551C12.5608 18.0083 10.1357 15.5832 10.1357 12.5917C10.1357 9.74184 12.3375 7.40867 15.1319 7.19404C15.2063 5.32525 16.7423 3.83022 18.6301 3.83022C19.0608 3.83022 19.4696 3.91202 19.8507 4.05367C21.4027 2.23734 23.7079 1.08398 26.2849 1.08398C30.1934 1.08398 33.4813 3.73382 34.4536 7.33424C34.69 7.39263 34.9223 7.46706 35.1456 7.55609" stroke="#252525" stroke-width="2" stroke-miterlimit="10" stroke-linecap="round" stroke-linejoin="round"/>
<path d="M59.5757 3.43841C60.1392 4.1206 60.5613 4.92274 60.7999 5.80149C62.5588 6.23509 63.864 7.82349 63.864 9.71685C63.864 11.9441 62.0588 13.7493 59.8315 13.7493H46.7254C44.4982 13.7493 42.6929 11.9441 42.6929 9.71685C42.6929 7.59368 44.332 5.85642 46.4132 5.69743C46.4682 4.30415 47.6114 3.19271 49.0177 3.19271C49.3371 3.19271 49.6435 3.25196 49.9268 3.35747C51.0815 2.0061 52.7985 1.14759 54.718 1.14759C54.8597 1.14759 55.0013 1.15192 55.1413 1.16349" stroke="#252525" stroke-width="2" stroke-miterlimit="10" stroke-linecap="round" stroke-linejoin="round"/>
<path d="M42.7643 10.4787L36.7723 5.7731L30.2606 12.9116L32.5236 14.6889L26.7065 22.2534L39.8119 15.7911L37.2937 13.4931L42.7643 10.4787Z" stroke="#252525" stroke-width="2" stroke-miterlimit="10" stroke-linecap="round" stroke-linejoin="round"/>
<path d="M33.729 42.3966C35.5354 40.5903 38.464 40.5903 40.2702 42.3966" stroke="#252525" stroke-width="2" stroke-miterlimit="10" stroke-linecap="round" stroke-linejoin="round"/>
<path d="M45.4303 31.4285C45.4303 32.7186 44.3844 33.7645 43.0942 33.7645C41.8041 33.7645 40.7583 32.7186 40.7583 31.4285" stroke="#252525" stroke-width="2" stroke-miterlimit="10" stroke-linecap="round" stroke-linejoin="round"/>
<path d="M28.5693 31.4285C28.5693 32.7186 29.6152 33.7645 30.9054 33.7645C32.1955 33.7645 33.2413 32.7186 33.2413 31.4285" stroke="#252525" stroke-width="2" stroke-miterlimit="10" stroke-linecap="round" stroke-linejoin="round"/>
</g>
</svg>
