<svg width="62" height="62" viewBox="0 0 62 62" fill="none" xmlns="http://www.w3.org/2000/svg">
<path d="M61.2223 30.9996C61.2223 14.3083 47.6913 0.777344 31.0001 0.777344C14.3088 0.777344 0.777832 14.3083 0.777832 30.9996C0.777832 46.0841 11.8296 58.5874 26.2778 60.8546V39.7357H18.6042V30.9996H26.2778V24.3412C26.2778 16.7668 30.7899 12.5829 37.6932 12.5829C41 12.5829 44.4584 13.1732 44.4584 13.1732V20.6107H40.6476C36.8934 20.6107 35.7223 22.9405 35.7223 25.3305V30.9996H44.1042L42.7643 39.7357H35.7223V60.8546C50.1705 58.5874 61.2223 46.0847 61.2223 30.9996Z" fill="#1877F2"/>
<path d="M42.7641 39.7358L44.104 30.9997H35.7221V25.3306C35.7221 22.9406 36.8932 20.6108 40.6473 20.6108H44.4582V13.1733C44.4582 13.1733 40.9997 12.583 37.693 12.583C30.7897 12.583 26.2776 16.7669 26.2776 24.3413V30.9997H18.604V39.7358H26.2776V60.8547C27.8165 61.0962 29.3931 61.2219 30.9998 61.2219C32.6066 61.2219 34.1832 61.0962 35.7221 60.8547V39.7358H42.7641Z" fill="white"/>
</svg>
