<svg width="74" height="74" viewBox="0 0 74 74" fill="none" xmlns="http://www.w3.org/2000/svg">
<g clip-path="url(#clip0_2053_415)">
<path d="M71.4223 57.3057L68.2899 62.082L56.5955 73.3977C56.5955 73.3977 44.5082 62.7811 40.2176 54.462C35.9271 46.1445 38.3367 38.4329 38.242 36.514C38.1475 34.5932 31.2231 26.5251 30.0949 24.4535C28.5706 21.3276 31.4472 19.8174 31.4472 19.8174C31.4472 19.8174 30.4457 18.6084 30.6366 16.5602C30.878 13.9786 33.4568 13.4579 33.4568 13.4579C33.4568 13.4579 32.486 11.4065 33.215 8.3815C33.9425 5.35809 37.8483 6.16554 37.8483 6.16554C37.3134 4.9647 37.6468 2.29775 40.0239 1.21005C41.2919 0.629671 44.9064 4.28333 48.9278 8.22039C51.53 10.7682 54.3933 12.9223 56.5955 15.8535C58.882 18.8975 60.5325 21.681 60.7882 23.4152C61.1969 26.1846 61.2631 31.0874 61.2616 35.7487C61.2584 41.1517 60.2288 48.4592 60.4639 49.5164C60.7446 50.7788 66.458 53.902 71.4223 57.3057Z" fill="#FFB48D"/>
<path d="M57.8244 39.4364C57.8244 39.4364 56.461 33.4811 56.461 31.0636C56.461 28.6462 56.461 19.7827 55.7367 19.7827C55.0108 19.7827 52.2715 21.3149 52.8348 27.357C53.3997 33.4006 46.1063 37.5807 46.4898 48.0601C39.7044 37.3408 49.9266 28.7992 50.5893 27.8714C51.2521 26.9451 49.5652 22.3232 50.826 18.8453C52.0868 15.3675 56.1643 13.8005 57.9838 15.2049C59.5065 16.3805 57.8244 39.4364 57.8244 39.4364Z" fill="#F5A27E"/>
<path d="M56.595 15.8535C55.5677 16.5589 54.4679 16.9439 54.1239 15.7273C53.4264 13.2562 42.4673 3.21076 40.6416 3.21076C38.8143 3.21076 38.2841 6.82749 38.2841 6.82749C39.2136 8.13722 40.8641 10.1018 43.5277 12.1721C45.0663 13.3682 45.5113 17.2185 50.1379 21.8672C50.6081 22.5284 49.5588 23.8933 48.5915 24.0543C47.6242 24.2153 40.9099 13.8479 40.9099 13.8479C39.1915 13.2025 36.7203 9.28125 36.7203 9.28125C33.2283 8.31395 34.5427 14.629 34.5427 14.629C35.8493 16.0082 37.7871 17.8528 39.9536 19.2446C39.9536 19.2446 43.695 24.4377 45.314 26.7937C45.314 26.7937 44.6166 27.7073 43.8639 27.7073C43.1127 27.7073 38.707 20.6159 37.5251 20.2403C36.7271 19.9858 35.1214 18.4831 34.1623 17.5336C33.7107 17.0866 32.9476 17.3551 32.8677 17.9855C32.6556 19.6606 33.4508 22.0597 33.4508 22.0597C34.7463 23.3994 36.5673 25.0895 38.5855 26.385C38.5855 26.385 39.5039 29.38 41.1245 31.7359C41.1245 31.7359 40.8026 32.0578 40.2645 32.0578C39.728 32.0578 37.2032 26.9546 36.2359 26.6327C35.2702 26.3108 32.4219 23.6235 32.4219 23.6235C31.2716 24.1032 31.7039 26.4197 31.8097 26.9152C31.0096 25.8485 30.3737 24.9664 30.0944 24.4535C28.5701 21.3276 31.4467 19.8174 31.4467 19.8174C31.4467 19.8174 30.1986 18.0185 30.3895 15.9703C30.6309 13.3887 32.829 12.6865 32.829 12.6865C32.829 12.6865 31.5525 11.0707 32.2815 8.04569C33.0089 5.02228 37.32 5.38206 37.32 5.38206C36.785 4.18122 36.6209 1.84265 39.5118 0.394069C41.5663 -0.633196 50.99 8.39285 56.595 15.8535Z" fill="#F5A27E"/>
<path d="M73.6167 56.9267L68.2894 62.082C65.1051 58.6183 59.3092 52.1707 58.76 50.5249C58.1257 48.6218 60.4674 38.9172 61.2611 35.7487C61.258 41.1517 61.1633 46.2312 61.3984 47.2884C61.6793 48.5508 68.6524 53.523 73.6167 56.9267Z" fill="#F5A27E"/>
<path d="M29.7633 40.9103C29.716 41.895 30.516 44.8442 30.1026 48.5967C29.9827 49.6681 31.6064 55.2163 31.2403 56.3919C30.9516 57.3229 28.7298 53.8671 28.2327 54.8313C24.9047 61.2836 15.1654 73.6866 15.1654 73.6866C15.0133 73.5215 3.59522 61.1378 3.45368 60.9838L2.55518 57.6549C6.35495 55.0796 12.2635 50.2846 12.5065 49.1942C12.7685 48.0187 11.798 40.4953 11.9732 34.9471C12.0268 33.2903 12.1184 31.8164 12.2762 30.7497C12.6265 28.367 16.3758 23.4295 20.245 19.3393C21.561 17.9491 22.8897 16.6552 24.1047 15.5948C26.276 13.6981 27.8425 13.4502 28.5415 13.8005C30.7838 14.924 29.6011 16.9572 29.1861 17.8898C29.1861 17.8898 33.0328 16.5708 33.5977 18.9172C34.1626 21.2621 32.792 22.8857 32.792 22.8857C32.792 22.8857 34.9408 22.6157 35.1288 24.6182C35.2771 26.2056 34.2424 28.3449 34.2424 28.3449C34.2424 28.3449 36.5726 28.6188 35.3907 31.0442C34.5164 32.6488 29.8375 39.4207 29.7633 40.9103Z" fill="#FFEBD3"/>
<path d="M36.083 31.556C35.2088 33.1608 29.8374 39.4206 29.7632 40.9102C29.1731 39.2723 31.4012 35.8986 32.0466 34.4074C32.6904 32.9178 31.6095 31.7296 31.6095 31.7296C30.6974 32.7742 29.6812 34.0397 28.5797 35.6714C28.2704 36.1305 27.5966 36.2063 27.2321 35.7897C27.1848 35.7345 27.1501 35.6777 27.1311 35.6161C27.0096 35.2137 28.018 33.3612 28.9442 31.9915C29.8705 30.6202 32.8119 28.8482 33.3768 27.1566C33.9401 25.4634 32.5042 24.07 32.5042 24.07C31.9061 24.6949 31.1518 25.4271 30.3013 26.1356C27.575 28.404 26.9481 30.0784 24.9914 32.9288L25.1161 29.8549C25.8236 28.6766 27.1209 26.6362 27.9769 25.5439C29.1462 24.0543 31.7246 23.6108 31.8856 21.2739C32.0466 18.9369 29.1068 18.7033 29.1068 18.7033C28.3446 19.6407 27.2306 20.8115 25.6636 22.0281C24.9056 22.6188 24.5003 24.0178 23.374 25.91L22.2157 28.673C21.9923 28.8412 22.1723 25.5202 23.0221 22.5504C23.8805 19.5412 27.6408 18.3057 27.4799 16.5873C27.3647 15.3643 25.2896 15.4464 24.1046 15.5947C26.2759 13.698 28.0795 12.5429 28.7786 12.8932C31.0209 14.0167 30.8931 15.8298 30.478 16.7624C30.478 16.7624 33.8218 16.4831 34.3867 18.8296C34.9516 21.1744 33.9622 22.4274 33.9622 22.4274C33.9622 22.4274 35.6664 22.9733 35.8542 24.9758C36.0025 26.5632 35.0337 27.9582 35.0337 27.9582C35.0337 27.9582 37.2649 29.1305 36.083 31.556Z" fill="#FFD5B7"/>
<path d="M27.0031 29.5426C26.5708 32.3798 23.7067 34.9014 23.814 35.7787C23.9497 36.8671 27.6859 46.2658 19.118 51.052C22.4664 46.6779 22.0546 36.2474 21.8936 35.389C21.7327 34.529 22.7536 33.0788 23.8267 31.575C24.9013 30.0712 23.6121 27.6537 22.9146 27.922C22.2203 28.1887 14.7154 40.7746 14.5986 40.9719C15.1867 39.6716 22.0669 24.6336 23.4779 24.4078C25.2374 24.1254 27.4339 26.7054 27.0031 29.5426Z" fill="#FFD5B7"/>
<path d="M12.9909 50.9147C11.7222 52.7846 6.44068 58.0551 3.45356 60.9838L0.382812 57.6543C4.18259 55.079 11.5596 50.3561 11.8027 49.2657C12.0646 48.0901 11.7979 40.4953 11.9731 34.9471C12.4985 37.5824 14.5689 48.5888 12.9909 50.9147Z" fill="#FFD5B7"/>
<path d="M42.6829 58.2726C42.6829 58.2726 42.1241 61.2938 40.0507 64.0206C37.9046 66.8451 36.8928 68.6306 35.9681 72.1588L32.8956 73.1452L23.4341 73.0821C23.4341 73.0821 28.2169 64.3622 28.1191 62.123C28.0544 60.6303 25.1572 57.8593 24.0669 55.3914C23.524 54.1558 24.1768 52.847 24.8214 52.5246C26.0826 51.8941 28.4205 52.764 29.5598 54.6197C29.5598 54.6197 28.6367 48.6881 29.3136 44.6327C29.3136 44.6311 29.3136 44.6311 29.3136 44.6311C29.6371 42.6934 30.3573 42.0323 31.6707 41.7273C34.3297 41.1095 34.3837 50.4917 34.3079 51.0835C34.2944 51.1588 35.4687 46.9853 37.1704 43.9889C38.1882 42.1979 39.6126 41.964 40.1581 42.157C41.904 42.7748 39.1397 51.6689 38.9188 52.1295C38.9085 52.1502 38.9103 52.1499 38.9141 52.1421C38.9172 52.1358 38.9235 52.1232 38.9346 52.1027C39.1476 51.7145 40.7729 48.7968 42.6665 46.9253C43.6712 45.896 45.342 45.7733 45.8523 46.1589C47.061 47.0721 42.3888 53.9268 42.2168 54.1194C42.8601 53.7293 44.9443 52.6908 46.5105 52.2084C47.7476 51.825 48.4897 52.2132 48.6993 52.6051C49.3172 53.7602 46.0456 56.7972 42.6829 58.2726Z" fill="#FFD5B7"/>
<path d="M30.2727 56.4439C30.2048 56.3619 27.9467 53.6698 26.0027 53.8276C24.745 53.9302 24.2558 54.7839 24.0665 55.3914C23.5237 54.1559 23.4306 52.996 24.371 52.1108C26.1873 50.3987 28.4201 52.7641 29.5594 54.6198L30.2727 56.4439Z" fill="#FFC7A0"/>
<path d="M33.8454 53.1696C33.6239 47.0347 32.8089 39.6214 29.3135 44.6312C29.637 42.6934 30.3234 41.1864 31.652 40.9576C35.6428 40.2712 34.3835 50.4918 34.3078 51.0835C34.3029 51.1105 34.3695 50.8085 33.8454 53.1696Z" fill="#FFC7A0"/>
<path d="M37.1699 43.9889C38.1877 42.1979 39.387 40.8472 40.6147 41.1296C43.7911 41.8618 39.1392 51.6689 38.9183 52.1297L38.9136 52.1423H38.912C38.9068 52.1581 38.5443 53.0363 38.385 53.1159C38.224 53.1964 40.3732 44.4134 39.701 43.2583C39.2828 42.5403 38.0457 43.3056 37.1699 43.9889Z" fill="#FFC7A0"/>
<path d="M42.6676 46.9239C43.7911 45.813 45.0093 45.0714 46.0823 45.4485C49.0552 46.4916 42.3883 53.927 42.2163 54.1195C42.2163 54.1195 41.5819 54.9148 41.3121 54.9148C41.0438 54.9148 45.2602 48.6834 44.8042 47.1796C44.5343 46.288 43.4818 46.5563 42.6676 46.9239Z" fill="#FFC7A0"/>
<path d="M43.4585 58.5079C43.4585 58.5079 43.6163 60.9238 41.5428 63.6505C39.3968 66.4751 37.7762 69.6437 36.8515 73.172L32.8955 73.1452L35.6996 66.1153C39.2453 64.7725 41.2115 58.541 41.2525 58.0376C41.2935 57.5343 46.5498 55.9231 47.4366 53.8276C47.9131 52.7009 47.2378 52.3206 46.5103 52.2086C47.7475 51.8251 48.8836 51.6957 49.3239 52.2749C50.9744 54.4477 46.8212 57.0325 43.4585 58.5079Z" fill="#FFC7A0"/>
<path d="M73.794 56.6644C62.8605 49.1681 61.7774 47.538 61.7059 47.2169C61.2811 45.3118 61.9831 29.3584 61.0998 23.3662C60.9314 22.2245 60.1956 20.6273 58.9129 18.6192C58.9058 18.608 58.8969 18.5985 58.8886 18.5886C58.7549 15.4012 58.3792 15.1097 58.1755 14.9524C57.5864 14.4973 56.7752 14.3067 55.8693 14.3951C53.0751 10.8539 49.5528 7.06551 46.4252 4.24077C42.803 0.969141 40.4292 -0.42027 39.3702 0.109931C36.7688 1.41255 36.3774 3.48902 36.8608 5.05327C35.6601 5.06589 32.6027 5.35924 31.9741 7.97016C31.403 10.3411 32.0097 11.8921 32.364 12.5386C31.9207 12.7582 31.1729 13.2365 30.6462 14.1276C30.3185 13.5646 29.7681 13.0345 28.9189 12.6094C26.2438 11.2691 12.6304 26.1731 11.9629 30.7008C11.2785 35.3421 11.8192 47.7362 11.4938 49.1952C11.2678 50.1403 3.39385 55.2302 0.219112 57.3815C0.0823008 57.4741 0.0253357 57.6568 0.104235 57.8021C0.194811 57.9689 0.406418 58.0171 0.559166 57.9135C5.25871 54.7279 11.8353 50.5647 12.11 49.3326C12.463 47.7499 11.9059 35.4157 12.5875 30.793C13.27 26.1643 26.7565 12.2361 28.6365 13.1739C30.5747 14.1445 30.5043 15.5558 30.3183 16.2602C30.2913 16.3625 30.252 16.4603 30.2034 16.5542C29.9093 17.1217 28.6654 19.2936 25.4699 21.7773C24.8631 22.249 24.4522 23.182 23.9993 24.0845C23.0514 23.9723 22.5303 23.8931 18.201 32.6365C16.1859 36.7061 14.3272 40.7994 14.3087 40.8403C14.2322 41.0088 14.3163 41.2092 14.4962 41.27C14.6526 41.3228 14.8227 41.2351 14.891 41.0847C18.437 33.2685 22.6379 25.0122 23.5273 24.7165C25.0002 24.4798 27.1027 26.7805 26.6902 29.4924C26.2646 32.2901 23.3679 34.7294 23.5013 35.815C23.6796 37.2684 27.189 46.197 18.9641 50.7737C18.6812 50.9311 18.7927 51.3651 19.1179 51.3651C19.1699 51.3651 19.2226 51.3521 19.2712 51.3252C22.6389 49.4512 24.5571 46.6394 24.9719 42.9677C25.3764 39.3896 24.1792 36.16 24.1279 35.7382C24.0531 35.1302 26.5625 32.7197 27.2111 30.0914C29.6817 26.3435 30.8701 26.662 34.0583 22.807C34.4711 23.0055 35.409 23.6048 35.5397 25.0022C35.6664 26.3571 34.8952 27.5911 34.787 27.7566C32.1836 30.7232 30.4774 32.166 27.9024 36.1177C27.8164 36.2498 27.8271 36.4322 27.9444 36.5376C28.0933 36.6717 28.3182 36.6361 28.4219 36.4767C31.2886 32.0735 33.5565 30.2381 35.0983 28.3687C35.5785 28.708 36.6367 29.6961 35.8048 31.4021C34.9345 33.0009 29.529 39.2618 29.4482 40.8914C29.4294 41.272 29.5255 41.9237 29.5965 42.4552C28.3758 45.1871 28.734 50.4192 29.0786 53.381C27.6902 51.6206 25.771 50.3549 24.1544 51.8782C22.2755 53.6489 24.0373 56.3125 25.6743 58.5589C21.5392 65.0394 14.9821 73.405 14.9158 73.4893C14.8082 73.6264 14.832 73.8248 14.9691 73.9326C15.1055 74.0397 15.3041 74.0168 15.4122 73.8792C15.4779 73.7956 21.9163 65.5816 26.0742 59.1051C26.9585 60.3105 27.7725 61.4397 27.8028 62.1342C27.8797 63.8954 24.4875 70.5 23.1642 72.9148C23.0888 73.0525 23.1139 73.231 23.2381 73.3273C23.3965 73.4503 23.6187 73.3991 23.7105 73.2313C23.9076 72.872 28.5339 64.4074 28.4336 62.1066C28.3302 59.7358 22.0274 54.75 24.5872 52.3376C26.1523 50.8628 28.1771 52.9708 29.2898 54.7824C29.47 55.0757 29.9232 54.907 29.8705 54.5687C29.3762 51.3891 28.5303 41.8114 31.7052 41.2655C34.7292 40.7458 34.3955 48.0414 33.9887 51.0662C33.9644 51.2483 34.1006 51.4168 34.2923 51.4238C34.4404 51.4292 34.5691 51.3204 34.6098 51.1778C35.4437 48.2618 38.12 40.877 40.5433 41.435C42.9432 41.9879 39.7245 49.7246 38.632 51.9917C38.5651 52.1307 38.5959 52.3041 38.7198 52.3961C38.8787 52.514 39.0975 52.4597 39.1872 52.2929C40.3096 50.2021 43.7176 44.9492 45.9771 45.7432C48.1146 46.4934 43.5209 52.1967 41.9884 53.8959C41.8969 53.9973 41.8691 54.1472 41.9344 54.2672C42.0212 54.4265 42.2172 54.4786 42.3682 54.3931C44.7412 53.0515 48.3896 51.5661 49.0713 52.4635C50.6515 54.5433 45.7161 57.1698 43.3306 58.216C43.2094 58.2691 43.1343 58.3929 43.1424 58.525C43.1438 58.548 43.2601 60.8675 41.2911 63.4576C39.0456 66.4116 37.45 69.6472 36.5486 73.0754C36.5085 73.2277 36.5772 73.3962 36.7217 73.4589C36.9057 73.5387 37.1071 73.4341 37.1552 73.2503C38.0348 69.8974 39.5952 66.7313 41.7935 63.8395C42.8522 62.4468 43.3486 61.1356 43.5795 60.1589C48.8223 66.9623 56.3094 73.5646 56.3864 73.6323C56.4463 73.6848 56.5207 73.7107 56.5945 73.7107C56.8852 73.7107 57.0202 73.3489 56.803 73.1581C56.7247 73.0891 48.944 66.2274 43.731 59.317C43.7624 59.0588 43.7729 58.8521 43.7753 58.7093C46.7069 57.3972 51.5139 54.6361 49.5738 52.0818C48.6349 50.8462 45.4925 52.1077 43.5255 53.0717C45.0541 51.2101 47.5448 47.8391 47.1063 46.1163C46.9038 45.3206 46.1061 44.9766 45.3222 45.0416C43.3019 39.6865 44.9837 34.1624 50.3277 28.619C50.5986 28.3379 50.7621 28.1683 50.8447 28.053C51.631 26.9533 49.8718 22.3964 51.1211 18.9499C52.3384 15.5915 56.1973 14.2226 57.7882 15.4514C59.0691 16.5425 57.6336 37.6733 57.5075 39.4114C57.4947 39.5853 57.6255 39.7365 57.7993 39.7491C57.9729 39.7624 58.1244 39.6311 58.137 39.4573C58.5162 34.2942 59.0195 25.1053 58.9244 19.8443C59.8128 21.3475 60.346 22.586 60.4746 23.4582C61.3538 29.4215 60.6373 45.3276 61.0891 47.3542C61.1779 47.7526 61.4482 48.9653 73.4364 57.1848C73.5794 57.283 73.7762 57.2473 73.8751 57.1029C73.9744 56.9593 73.9378 56.7629 73.794 56.6644ZM27.3711 28.7528C27.3518 26.6025 26.005 24.7873 24.6246 24.2448C24.9784 23.5361 25.3983 22.6321 25.8572 22.2755C28.8299 19.9647 30.1958 17.8355 30.6269 17.0683C31.2031 17.0503 33.6418 17.0838 34.0794 18.9004C34.597 21.05 33.7493 22.1838 33.7143 22.2296C31.4126 25.2225 29.4231 25.9678 27.3711 28.7528ZM31.5984 40.6437C31.0167 40.7437 30.5236 41.0524 30.1192 41.5668C30.0884 41.2965 30.071 41.0757 30.0786 40.9228C30.1352 39.7796 34.1708 34.8522 35.7249 32.6706C37.1577 34.6873 37.8991 35.9853 37.9259 36.5272C37.9715 37.4481 37.3938 39.8583 37.3398 43.0887C36.3037 44.6686 35.4366 46.7665 34.8416 48.4236C34.9773 45.2529 34.7434 40.1035 31.5984 40.6437ZM50.3318 27.6859C49.6104 28.695 41.2165 35.7645 44.6968 45.1747C43.2651 45.6504 41.7997 47.2601 40.667 48.7985C41.5691 46.3834 43.2053 41.4006 40.6851 40.8202C39.7357 40.6012 38.8266 41.1931 38.0007 42.1868C38.1339 39.4133 38.6017 37.4146 38.5561 36.4958C38.521 35.7865 37.7629 34.4324 36.1055 32.1174C37.2005 30.4485 36.8249 28.8601 35.462 27.8606C35.7448 27.3631 36.2679 26.2531 36.1717 25.0057C36.8989 25.6008 37.6182 26.1307 38.3179 26.5856C38.5031 27.1593 39.3915 29.7707 40.8641 31.9119C40.9253 32.0009 41.0239 32.0487 41.1245 32.0487C41.3747 32.0487 41.5294 31.7655 41.3842 31.5543C39.8114 29.2672 38.8952 26.3189 38.8861 26.2894C38.8642 26.2181 38.8178 26.1569 38.755 26.1165C37.8479 25.534 36.9043 24.8201 35.9499 23.9947C35.579 23.0205 34.8559 22.5106 34.4179 22.2818C34.7008 21.7346 35.1226 20.5367 34.6931 18.7527C34.2028 16.7166 31.9348 16.4496 30.9293 16.4333C31.0601 15.9604 31.089 15.434 30.9618 14.9082C31.4188 13.7776 32.3342 13.2482 32.7313 13.0644C33.4096 13.8847 36.2974 17.2547 39.7327 19.4751C40.1163 20.0079 43.5377 24.7646 45.0543 26.9698C45.1534 27.1141 45.3503 27.1494 45.4931 27.0511C45.6367 26.9523 45.6731 26.7559 45.5744 26.6123C45.0347 25.8275 40.2749 19.0733 40.1243 18.9766C36.1144 16.4018 33.1361 12.5817 33.0766 12.489C33.0766 12.489 31.9086 10.9377 32.5877 8.11786C33.1815 5.65227 36.5256 5.66126 37.182 5.68762C37.7021 6.62588 39.4475 9.39824 43.3328 12.4183C44.7761 13.5401 45.2662 17.4183 49.9132 22.088C49.9471 22.1221 50.0298 22.2133 50.0298 22.2133C50.0503 24.5988 50.6757 27.2051 50.3318 27.6859ZM50.5284 18.7347C50.2302 19.5574 50.0923 20.4405 50.0468 21.3216C45.7075 16.8092 45.3364 13.1762 43.7202 11.92C39.3092 8.49137 37.7869 5.57511 37.539 5.061C37.5156 5.0124 37.4953 4.96348 37.4789 4.9122C37.055 3.59095 37.3883 1.80831 39.6528 0.674216C40.2376 0.381343 42.2134 1.2871 46.002 4.70895C49.026 7.44012 52.4217 11.08 55.1598 14.517C53.228 14.9906 51.3274 16.5309 50.5284 18.7347Z" fill="#252525"/>
</g>
<defs>
<clipPath id="clip0_2053_415">
<rect width="74" height="74" fill="white"/>
</clipPath>
</defs>
</svg>
