<svg width="74" height="74" viewBox="0 0 74 74" fill="none" xmlns="http://www.w3.org/2000/svg">
<path d="M70.9972 38.9771C72.1572 36.879 72.6481 34.1913 71.887 32.0117C72.1344 31.1477 72.1898 30.2401 71.8653 29.2907C71.3184 27.6874 69.9481 26.7705 69.0017 26.3075C68.963 25.918 68.9154 25.669 68.9114 25.6508C68.8515 25.3967 68.7787 25.1313 68.7064 24.8897C68.6149 24.5837 68.292 24.411 67.9866 24.5018C67.9319 24.5182 67.8832 24.5441 67.8376 24.574C67.4012 24.2011 66.6846 24.225 66.2912 24.732C66.2333 24.8129 66.1755 24.8823 66.1062 24.9517C66.164 24.6742 66.1987 24.3851 66.2449 24.1076C66.6149 21.4598 67.8637 12.6376 62.0708 6.38231C61.2152 5.45731 57.0296 0.936372 50.6008 1.16762C45.3399 1.35262 41.9521 4.60168 41.2121 5.33012C39.7321 6.82168 38.784 8.48668 38.1596 10.0014C37.7665 10.9726 36.4252 10.9379 36.0321 9.97825C35.4193 8.53293 34.4365 6.90262 32.8755 5.33012C32.1355 4.60168 28.7477 1.35262 23.4868 1.16762C17.058 0.936372 12.8724 5.45731 12.0168 6.38231C6.22397 12.6376 7.47272 21.4598 7.85428 24.1076C7.91209 24.5007 7.96991 24.8939 8.05084 25.2754C7.88897 25.0904 7.73866 24.917 7.59991 24.732C7.20649 24.225 6.48976 24.2011 6.05328 24.5742C6.00775 24.5443 5.95904 24.5184 5.90412 24.5019C5.59584 24.411 5.27628 24.5837 5.18436 24.8898C5.11209 25.1315 5.03925 25.3968 4.97435 25.6741C4.97435 25.6741 4.92738 25.9209 4.88937 26.3084C3.94298 26.7715 2.57383 27.6884 2.02722 29.2908C1.70318 30.2392 1.75795 31.1461 2.00496 32.0096C1.24256 34.1895 1.73353 36.8784 2.89397 38.9773C4.91741 42.6079 8.52491 45.0938 12.3174 46.8051C14.8843 47.9613 17.5552 48.817 20.2146 49.7304C16.2024 51.4417 12.0746 52.9101 7.93522 54.1588C7.09116 54.4132 6.40897 55.0376 6.08522 55.8585C4.61678 59.547 4.29303 63.6979 5.22959 67.5598C5.50709 68.7392 5.98116 69.8839 6.75584 70.8204C9.44991 74.0463 13.2771 72.786 16.3527 71.2713C23.6371 67.6638 30.1468 62.6226 36.9455 58.1595C43.7443 62.6226 50.254 67.6638 57.5383 71.2713C60.614 72.786 64.4412 74.0463 67.1352 70.8204C67.9099 69.8839 68.384 68.7392 68.6615 67.5598C69.598 63.6979 69.2743 59.547 67.8058 55.8585C67.4821 55.0376 66.7999 54.4132 65.9558 54.1588C61.8165 52.9101 57.6887 51.4417 53.6765 49.7304C56.3358 48.817 59.0068 47.9613 61.5737 46.8051C65.3663 45.0937 68.9738 42.6078 70.9972 38.9771Z" fill="#E96088"/>
<path d="M67.8061 55.8585C69.2745 59.5469 69.5983 63.6978 68.6617 67.5597C68.3842 68.7391 67.9102 69.8838 67.1355 70.8203C64.4414 74.0463 60.6142 72.786 57.5386 71.2713C50.2542 67.6638 43.7446 62.6225 36.9458 58.1594C41.0736 55.4538 45.3055 52.9563 49.8842 51.1178C51.133 50.6207 52.4049 50.1697 53.6767 49.7303C57.6889 51.4416 61.8167 52.91 65.9561 54.1588C66.8002 54.4132 67.4824 55.0375 67.8061 55.8585Z" fill="#E5AAAA"/>
<path d="M71.4713 31.0915C72.7779 33.3925 72.3269 36.5722 70.9972 38.9772C68.9738 42.6078 65.3663 45.0937 61.5738 46.805C59.0069 47.9612 56.336 48.8168 53.6766 49.7303C52.4047 50.1697 51.1329 50.6206 49.8841 51.1178C45.3054 52.9562 41.0735 55.4537 36.9457 58.1594C30.1469 62.6225 23.6372 67.6637 16.3529 71.2712C13.2772 72.7859 9.45004 74.0462 6.75598 70.8203C5.98129 69.8837 5.50723 68.739 5.22973 67.5597C4.29317 63.6978 4.61692 59.5469 6.08536 55.8584C6.40911 55.0375 7.09129 54.4131 7.93536 54.1587C12.0747 52.91 16.2025 51.4415 20.2147 49.7303C23.6604 48.285 27.0366 46.6662 30.2972 44.874C32.5288 43.6484 34.7835 42.4112 36.9457 41.0584C39.1657 39.6709 41.3047 38.1447 43.2357 36.3756C46.7507 33.1728 49.595 28.9987 50.4507 24.3506C50.5894 23.6222 51.3179 23.1828 52.0347 23.3331C52.4279 23.4256 52.821 23.5297 53.1679 23.6453C53.931 23.9112 54.6594 24.3853 55.0641 25.0906C55.3994 25.6687 55.4804 26.3509 55.5382 27.0215C55.7347 29.2994 55.6191 31.6119 55.1797 33.855C59.5504 31.82 63.1579 28.7212 66.1063 24.9519C66.1757 24.8825 66.2335 24.8131 66.2913 24.7322C66.8116 24.0615 67.8985 24.235 68.1529 25.0559C68.2222 25.2872 68.2916 25.5415 68.3494 25.7844C68.3494 25.7844 68.4188 26.1428 68.4535 26.6862C69.0663 26.9522 70.7313 27.7731 71.321 29.4728C71.506 30.0162 71.5407 30.5481 71.4713 31.08V31.0915Z" fill="#E8CDBF"/>
<path d="M5.73853 25.0559C5.99291 24.235 7.07978 24.0615 7.60009 24.7322C7.73884 24.9172 7.88916 25.0906 8.05103 25.2756V25.2872C10.9532 28.8947 14.4798 31.8778 18.7117 33.855C18.2723 31.6119 18.1567 29.2994 18.3532 27.0215C18.411 26.3509 18.492 25.6687 18.8273 25.0906C19.232 24.3853 19.9604 23.9112 20.7235 23.6453C21.0704 23.5297 21.4635 23.4256 21.8567 23.3331C22.5735 23.1828 23.302 23.6222 23.4407 24.3506C24.2963 28.9987 27.1407 33.1728 30.6557 36.3756C32.5867 38.1447 34.7257 39.6709 36.9457 41.0584C34.7835 42.4112 32.5288 43.6484 30.2973 44.874C27.0367 46.6662 23.6604 48.285 20.2148 49.7303C17.5554 48.8168 14.8845 47.9612 12.3176 46.805C8.52509 45.0937 4.91759 42.6078 2.89416 38.9772C1.56447 36.5722 1.11353 33.3925 2.42009 31.0915V31.08C2.35072 30.5481 2.38541 30.0162 2.57041 29.4728C3.16009 27.7731 4.82509 26.9522 5.43791 26.6862C5.47259 26.1428 5.54197 25.7844 5.54197 25.7844C5.59978 25.5415 5.66916 25.2872 5.73853 25.0559Z" fill="#E8CDBF"/>
<path d="M31.5137 37.1169C29.0555 42.7515 22.0939 46.3275 15.3213 48.0184C16.9397 48.6203 18.5779 49.1682 20.2145 49.7303C23.6602 48.285 27.0364 46.6663 30.297 44.8741C32.5286 43.6485 34.7833 42.4113 36.9455 41.0585C35.0462 39.8714 33.2148 38.5722 31.5137 37.1169Z" fill="#E5AAAA"/>
<path d="M62.0711 6.38255C67.8639 12.6379 66.6151 21.4601 66.2451 24.1079C66.1989 24.3854 66.1642 24.6744 66.1064 24.9519C63.158 28.7213 59.5505 31.8201 55.1798 33.8551C55.6192 31.6119 55.7348 29.2994 55.5383 27.0216C55.4805 26.351 55.3995 25.6688 55.0642 25.0907C54.6595 24.3854 53.9311 23.9113 53.168 23.6454C52.8211 23.5297 52.428 23.4257 52.0348 23.3332C51.318 23.1829 50.5895 23.6222 50.4508 24.3507C49.5951 28.9988 46.7508 33.1729 43.2358 36.3757C41.3048 38.1447 39.1658 39.671 36.9458 41.0585C34.7258 39.671 32.5867 38.1447 30.6558 36.3757C27.1408 33.1729 24.2964 28.9988 23.4408 24.3507C23.302 23.6222 22.5736 23.1829 21.8567 23.3332C21.4636 23.4257 21.0705 23.5297 20.7236 23.6454C19.9605 23.9113 19.232 24.3854 18.8273 25.0907C18.492 25.6688 18.4111 26.351 18.3533 27.0216C18.1567 29.2994 18.2723 31.6119 18.7117 33.8551C14.4798 31.8779 10.9533 28.8947 8.05108 25.2872V25.2757C7.97014 24.8941 7.91233 24.501 7.85452 24.1079C7.47296 21.4601 6.22421 12.6379 12.017 6.38255C12.8726 5.45755 17.0583 0.936616 23.487 1.16787C28.748 1.35287 32.1358 4.60193 32.8758 5.33037C34.4367 6.90287 35.4195 8.53318 36.0323 9.97849C36.4255 10.9382 37.7667 10.9729 38.1598 10.0016C38.7842 8.48693 39.7323 6.82193 41.2123 5.33037C41.9523 4.60193 45.3401 1.35287 50.6011 1.16787C57.0298 0.936616 61.2155 5.45755 62.0711 6.38255Z" fill="#E96088"/>
<path d="M29.3408 35.0959C29.7666 35.5374 30.2053 35.9651 30.6559 36.3755C32.5868 38.1446 34.7259 39.6708 36.9459 41.0583C39.1659 39.6708 41.305 38.1446 43.2359 36.3755C43.8749 35.7934 44.481 35.1688 45.0677 34.5254C39.9571 35.4122 34.5624 35.6553 29.3408 35.0959Z" fill="#D6366B"/>
<path d="M65.7497 12.9882C65.9419 16.5426 65.308 20.0901 63.127 23.6932C61.2645 26.7701 58.6058 29.1505 55.5569 30.9174C55.487 31.9035 55.3695 32.8864 55.1797 33.855C59.5503 31.82 63.1578 28.7213 66.1063 24.9519C66.1641 24.6744 66.1987 24.3853 66.245 24.1078C66.4948 22.3198 67.1373 17.7155 65.7497 12.9882Z" fill="#D6366B"/>
<path d="M61.272 21.9009C61.167 21.9009 61.0603 21.8862 60.9548 21.8563C60.3405 21.6813 59.9843 21.041 60.1593 20.4273C60.2722 20.0316 60.3609 19.6188 60.4223 19.2005C60.5156 18.5682 61.1066 18.1323 61.7344 18.2249C62.3661 18.3182 62.8032 18.9052 62.71 19.537C62.6338 20.0553 62.5237 20.5679 62.3836 21.0608C62.2387 21.569 61.7757 21.9009 61.272 21.9009Z" fill="#D6366B"/>
<path d="M61.2719 15.8945C60.7649 15.8945 60.2996 15.5586 60.158 15.0465C59.9074 14.1409 59.5364 13.2879 59.0554 12.5104C57.6151 10.1843 55.1491 8.49636 52.4588 7.99383C51.831 7.8769 51.4172 7.27291 51.5345 6.64506C51.6515 6.0178 52.2504 5.60169 52.8833 5.72079C56.2019 6.3401 59.2444 8.42338 61.0211 11.2932C61.6179 12.2575 62.0775 13.3121 62.3868 14.4288C62.5574 15.0448 62.1966 15.6816 61.5812 15.8521C61.478 15.8803 61.3741 15.8945 61.2719 15.8945Z" fill="#D6366B"/>
<path d="M71.8653 29.2907C71.3184 27.6874 69.9481 26.7705 69.0017 26.3076C68.963 25.9181 68.9154 25.6691 68.9114 25.6508C68.8516 25.3968 68.7787 25.1314 68.7064 24.8897C68.615 24.5838 68.2921 24.4111 67.9867 24.5018C67.6807 24.5939 67.5074 24.9162 67.5988 25.2216C67.6654 25.4429 67.7314 25.6857 67.7812 25.8934C67.7845 25.9091 67.8449 26.2355 67.8771 26.7277C67.9059 27.1285 67.924 27.7412 67.8455 28.3797C67.6073 30.1977 65.7649 33.1718 62.1862 35.7192C61.9259 35.9043 61.8655 36.2651 62.0506 36.5254C62.1635 36.6835 62.3414 36.7682 62.5221 36.7682C62.6379 36.7682 62.7552 36.7332 62.8568 36.6609C66.2533 34.2434 68.6612 31.0518 68.992 28.5254C69.0295 28.2228 69.0448 27.9324 69.0516 27.6582C69.72 28.0768 70.4488 28.7203 70.7711 29.6642C71.2684 31.1214 70.5632 32.5051 69.5126 34.3016C68.1695 36.5961 66.1179 38.5857 63.5783 40.0553C63.3023 40.215 63.2075 40.5685 63.3678 40.8451C63.475 41.0303 63.6687 41.1336 63.8686 41.1336C63.9668 41.1336 64.0661 41.1088 64.1576 41.0557C66.8699 39.4862 69.0666 37.3527 70.5108 34.8855C71.4775 33.2337 72.5728 31.361 71.8653 29.2907Z" fill="#E5AAAA"/>
<path d="M6.04621 28.3847C5.96715 27.7372 5.98522 27.1268 6.01514 26.7231C6.04563 26.2415 6.10489 25.9175 6.10431 25.9175C6.15967 25.686 6.22572 25.4433 6.29235 25.222C6.38383 24.9166 6.21054 24.5942 5.90443 24.5023C5.59614 24.4113 5.27658 24.5841 5.18466 24.8902C5.11239 25.1318 5.03955 25.3972 4.97466 25.6744C4.97466 25.6744 4.92768 25.9213 4.88967 26.3087C3.94328 26.7718 2.57414 27.6887 2.02752 29.2912C1.32004 31.3614 2.41544 33.2341 3.38192 34.8861C4.82608 37.3532 7.02281 39.4868 9.73508 41.0563C9.82657 41.1093 9.92586 41.1342 10.0241 41.1342C10.224 41.1342 10.4177 41.0308 10.5249 40.8457C10.6852 40.5691 10.5904 40.2157 10.3144 40.0558C7.77495 38.5862 5.72318 36.5966 4.38005 34.3022C3.32931 32.5057 2.62429 31.1219 3.12162 29.6648C3.44364 28.7216 4.17164 28.0782 4.83966 27.6597C4.84631 27.934 4.86192 28.2249 4.8995 28.5305C5.23033 31.0524 7.63822 34.2439 11.0341 36.6615C11.1357 36.7338 11.2532 36.7688 11.3689 36.7688C11.5495 36.7688 11.7273 36.6841 11.8403 36.526C12.0255 36.2657 11.9651 35.9049 11.7048 35.7198C8.12659 33.1722 6.2844 30.1981 6.04621 28.3847Z" fill="#E5AAAA"/>
</svg>
