<svg width="74" height="74" viewBox="0 0 74 74" fill="none" xmlns="http://www.w3.org/2000/svg">
<g clip-path="url(#clip0_2053_395)">
<path d="M72.7041 66.2726L60.5107 54.085C58.0349 51.6107 55.7629 48.9397 53.7163 46.0997L50.2363 41.268L48.6099 40.2882L48.1655 38.3931L41.0064 28.4539C39.668 26.5981 38.1114 24.91 36.3684 23.4271L10.3179 1.51613C9.97828 1.22707 9.56058 1.08398 9.14433 1.08398C8.92363 1.08398 8.70365 1.12489 8.49538 1.20481C8.49538 1.20481 8.25734 1.49893 8.07306 1.68321C7.51084 2.24544 7.07074 2.88094 6.75277 3.56024C5.58814 6.03577 6.89673 9.34871 8.94372 11.3956L18.289 20.2919L20.9142 22.9861C20.9142 22.9861 18.3582 30.908 21.2286 33.7784L27.8062 39.7779C28.8309 40.8041 29.6634 41.9907 30.2733 43.2813C30.8833 44.5734 31.2735 45.9682 31.4151 47.4106C31.6984 50.2954 32.9746 52.9924 35.0241 55.0433H35.0255C36.387 56.4048 37.9075 57.5827 39.5523 58.5554C41.1956 59.5266 42.9603 60.2941 44.8089 60.8318C46.0923 61.2047 47.2616 61.8969 48.2082 62.8422L56.9076 71.5749C57.0702 71.7375 57.2907 71.829 57.5208 71.829L62.5605 72.916H70.0252H72.1932C72.5922 72.916 72.9158 72.5924 72.9158 72.1934V66.7838C72.9158 66.592 72.8397 66.4082 72.7041 66.2726Z" fill="#FDD0BF"/>
<path d="M62.5604 72.916H57.194C56.9642 72.916 56.7445 72.825 56.5812 72.6617L47.6303 63.7094C46.6837 62.7642 45.5144 62.0719 44.231 61.699C42.3824 61.1613 40.6177 60.3939 38.9744 59.4226C37.3296 58.4499 35.8091 57.272 34.4476 55.9105H34.4462C32.3967 53.8596 31.1205 51.1626 30.8372 48.2778C30.6956 46.8354 30.3054 45.4406 29.6954 44.1485C29.0855 42.8579 28.253 41.6713 27.2283 40.6451L20.3616 33.7784C17.4927 30.9095 17.4305 26.2931 20.1723 23.349L20.1159 23.3028L7.86979 11.0567C5.82178 9.0101 5.38096 5.96627 6.54588 3.49045C6.86385 2.81115 7.30467 2.17522 7.8669 1.61299C8.05045 1.42944 8.26551 1.29155 8.49532 1.20483C7.94032 3.40894 8.52451 5.84197 10.2488 7.56623L22.3734 19.7784C22.4291 19.8346 22.4994 19.8734 22.576 19.8934C23.2296 20.0652 24.1113 20.4563 24.7639 21.1117L37.9105 34.2597C38.1937 34.5415 38.3339 34.9115 38.3339 35.2815C38.3339 35.6515 38.1937 36.0215 37.9105 36.3034C37.3468 36.8685 36.4305 36.8685 35.8653 36.3034L23.412 23.8485C23.3411 23.7777 23.22 23.798 23.1782 23.889C21.9081 26.6613 22.4145 30.0502 24.6974 32.3331L31.5641 39.1998C32.1625 39.7981 32.6943 40.4514 33.1554 41.1481C36.6415 37.993 40.2085 34.9043 42.9878 31.2058L50.2361 41.268L48.8153 42.6888C48.0291 43.4765 47.3903 44.3827 46.9176 45.3828C46.4436 46.3888 46.1473 47.4583 46.0389 48.5596C45.7469 51.5269 44.5921 54.3524 42.7436 56.6707C42.4704 57.0133 42.5499 57.5148 42.9214 57.7431C44.5676 58.7578 46.6416 59.7073 48.5667 60.2537C49.8502 60.6265 51.0194 61.3188 51.9661 62.2641L62.5604 72.916Z" fill="#FCC1AC"/>
<path d="M66.1198 2.31133C65.4534 1.6449 64.3864 1.60226 63.6683 2.21363L38.5558 23.7112C36.8132 25.1944 35.2562 26.8827 33.9187 28.7393L21.0839 46.4223C19.0377 49.2627 16.7657 51.9332 14.2897 54.4079L2.53674 66.4844L2.45508 71.262L3.97468 72.916H16.8053C17.0352 72.916 17.2559 72.8247 17.4185 72.6619L26.3698 63.7094C27.3165 62.7641 28.4857 62.0718 29.7692 61.6989C31.6177 61.1613 33.3825 60.3938 35.0258 59.4226C36.6705 58.4499 38.191 57.2719 39.5525 55.9105H39.5539C41.6034 53.8596 42.8796 51.1626 43.1629 48.2778C43.3045 46.8353 43.6948 45.4406 44.3047 44.1485C44.9146 42.8578 45.7471 41.6712 46.7718 40.6451L53.6385 33.7784C56.5089 30.908 56.5696 26.2902 53.825 23.3461C53.8235 23.3447 54.6495 21.8835 54.6495 21.8835L55.8773 21.3097L66.1306 11.0563C68.1776 9.00934 68.6182 5.96552 67.4535 3.49013C67.1341 2.81112 66.6809 2.8724 66.1198 2.31133Z" fill="#FEDECF"/>
<path d="M67.4536 3.49L40.5222 25.7396C38.7792 27.2225 37.2226 28.9106 35.8842 30.7664L23.1741 48.4122C21.1276 51.2522 18.8555 53.9232 16.3797 56.3975L4.80855 67.9629C4.27523 68.4963 3.97461 69.2218 3.97461 69.9762V72.916H1.80664C1.40759 72.916 1.08398 72.5924 1.08398 72.1934V66.7838C1.08398 66.5922 1.16015 66.4082 1.29572 66.2728L13.4891 54.085C15.9649 51.6107 18.237 48.9397 20.2835 46.0997L32.9936 28.4539C34.332 26.5981 35.8886 24.91 37.6316 23.4271L63.6819 1.51613C64.0216 1.22707 64.4393 1.08398 64.8555 1.08398C65.3195 1.08398 65.782 1.26176 66.1332 1.61297C66.6954 2.1752 67.1355 2.8107 67.4536 3.49Z" fill="#FDD0BF"/>
<path d="M55.877 21.3097L53.884 23.3027L53.8276 23.349C53.8261 23.3475 53.8261 23.3461 53.8247 23.3461C53.7654 23.2811 53.7033 23.2175 53.6412 23.1553C53.3145 22.8301 52.8881 22.6668 52.4618 22.6668C52.034 22.6668 51.6061 22.8301 51.281 23.1553L38.1337 36.3039C37.569 36.8687 36.6532 36.8687 36.0886 36.3039C35.5239 35.7392 35.5239 34.8236 36.0886 34.2588L49.2358 21.1115C51.015 19.3338 53.9071 19.3338 55.6848 21.1115C55.7499 21.1767 55.8135 21.2432 55.877 21.3097Z" fill="#FDD0BF"/>
<path d="M48.5337 38.9048L53.7164 46.0994C55.7626 48.9397 58.0346 51.6104 60.5106 54.085L72.916 66.4844" stroke="#252525" stroke-width="2" stroke-miterlimit="10" stroke-linecap="round" stroke-linejoin="round"/>
<path d="M10.0074 13.1945L7.86935 11.0564C5.26085 8.44805 5.25955 4.22022 7.86632 1.61346C8.53275 0.947022 9.59968 0.904385 10.3179 1.51575L36.3686 23.4264C36.5789 23.6055 36.7866 23.7874 36.9915 23.9724" stroke="#252525" stroke-width="2" stroke-miterlimit="10" stroke-linecap="round" stroke-linejoin="round"/>
<path d="M20.116 23.3033L13.582 16.7693" stroke="#252525" stroke-width="2" stroke-miterlimit="10" stroke-linecap="round" stroke-linejoin="round"/>
<path d="M25.469 38.8858L20.362 33.7788C17.4275 30.8444 17.426 26.088 20.3587 23.1554C21.0104 22.5037 22.0674 22.504 22.7195 23.1562L30.9065 31.3431" stroke="#252525" stroke-width="2" stroke-miterlimit="10" stroke-linecap="round" stroke-linejoin="round"/>
<path d="M56.8354 72.9161L47.6294 63.71C46.6836 62.7642 45.5144 62.0725 44.2304 61.6989C41.6244 60.9407 39.1828 59.7272 37.0151 58.1232" stroke="#252525" stroke-width="2" stroke-miterlimit="10" stroke-linecap="round" stroke-linejoin="round"/>
<path d="M50.1773 12.8741L37.6313 23.4264C35.8887 24.9096 34.3317 26.5978 32.9942 28.4545L20.2835 46.0994C18.2374 48.9398 15.9654 51.6104 13.4894 54.0851L1.08398 66.4844" stroke="#252525" stroke-width="2" stroke-miterlimit="10" stroke-linecap="round" stroke-linejoin="round"/>
<path d="M53.8838 23.3032L66.1306 11.0564C68.739 8.44803 68.7403 4.22034 66.1335 1.61358C65.4671 0.947144 64.4002 0.904507 63.682 1.51587L54.0519 9.61555" stroke="#252525" stroke-width="2" stroke-miterlimit="10" stroke-linecap="round" stroke-linejoin="round"/>
<path d="M17.1641 72.916L26.3701 63.7099C27.3159 62.7641 28.485 62.0724 29.7691 61.6988C33.4652 60.6235 36.8304 58.6323 39.5528 55.91L39.5531 55.9097C41.6031 53.8597 42.8788 51.1622 43.1621 48.2775C43.4453 45.3928 44.721 42.6954 46.771 40.6452L53.6377 33.7785C56.5722 30.8441 56.5737 26.0877 53.641 23.1552C52.9893 22.5035 51.9324 22.5038 51.2802 23.1559L37.1102 37.3259" stroke="#252525" stroke-width="2" stroke-miterlimit="10" stroke-linecap="round" stroke-linejoin="round"/>
</g>
<defs>
<clipPath id="clip0_2053_395">
<rect width="74" height="74" fill="white"/>
</clipPath>
</defs>
</svg>
