<svg width="74" height="74" viewBox="0 0 74 74" fill="none" xmlns="http://www.w3.org/2000/svg">
<g clip-path="url(#clip0_2053_374)">
<path d="M42.9857 20.2387C39.546 20.2387 36.7859 17.2873 37.0341 13.7981C37.2379 10.934 39.5066 8.59118 42.3631 8.2988C42.7652 8.25761 43.1599 8.25703 43.544 8.29288C44.0684 8.34173 44.552 8.01047 44.7235 7.51272C46.0134 3.77191 49.5626 1.08398 53.7416 1.08398C56.877 1.08398 59.6578 2.59733 61.3965 4.9329C61.8398 5.52835 62.5313 5.87768 63.2736 5.87291C63.2887 5.87276 63.3038 5.87276 63.319 5.87276C67.3269 5.87276 70.5682 9.15527 70.501 13.1785C70.4353 17.117 67.1399 20.2388 63.2008 20.2388L42.9857 20.2387Z" fill="#DDEAFB"/>
<path d="M63.3192 5.87262C63.3041 5.87262 63.289 5.87262 63.2739 5.87276C62.5316 5.87767 61.84 5.52821 61.3967 4.93275C59.6581 2.59733 56.8772 1.08398 53.7418 1.08398C53.1756 1.08398 52.6216 1.135 52.0825 1.22952C54.5262 1.65993 56.6489 3.02051 58.0725 4.93275C58.5157 5.52821 59.2073 5.87753 59.9496 5.87276C59.9646 5.87262 59.9798 5.87262 59.995 5.87262C64.0029 5.87262 67.2442 9.15513 67.177 13.1783C67.1112 17.1169 63.8158 20.2387 59.8767 20.2387H63.2009C67.14 20.2387 70.4354 17.1169 70.5011 13.1783C70.5683 9.15513 67.3271 5.87262 63.3192 5.87262Z" fill="#BED8FB"/>
<path d="M63.3378 25.0275H63.3345C63.158 25.0275 63.0062 24.9088 62.9568 24.7394C61.7968 20.7557 58.1186 17.8445 53.7604 17.8445C52.1308 17.8445 50.5971 18.2527 49.2542 18.971C48.7278 19.2526 48.0744 19.1055 47.7398 18.6112C46.4486 16.704 44.2654 15.4501 41.7887 15.4501C41.2095 15.4501 40.6465 15.519 40.1072 15.6486C39.5228 15.7891 38.9194 15.4752 38.7307 14.9046C36.996 9.65841 32.0532 5.8728 26.2256 5.8728C18.9527 5.8728 13.0566 11.7687 13.0566 19.0417C13.0566 19.2069 13.0608 19.371 13.0678 19.5344C13.0746 19.6961 13.0215 19.8548 12.9219 19.9825L12.9117 19.9956C12.787 20.1554 12.5981 20.2497 12.3956 20.2608C6.02336 20.608 0.9766 25.9347 1.08673 32.4189C1.19802 38.9735 6.65119 44.1821 13.207 44.1821H63.195C68.4585 44.1821 72.846 39.995 72.9143 34.7319C72.9837 29.3843 68.6696 25.0275 63.3378 25.0275Z" fill="#ECF4FF"/>
<path d="M63.3378 25.0275H63.3345C63.158 25.0275 63.0062 24.9088 62.9568 24.7394C61.7968 20.7557 58.1186 17.8445 53.7604 17.8445C52.1308 17.8445 50.5971 18.2527 49.2542 18.971C48.7278 19.2526 48.0744 19.1055 47.7398 18.6112C46.4486 16.704 44.2654 15.4501 41.7887 15.4501C41.2095 15.4501 40.6465 15.519 40.1072 15.6486C39.5228 15.7891 38.9194 15.4752 38.7307 14.9046C36.996 9.65841 32.0532 5.8728 26.2256 5.8728C18.9527 5.8728 13.0566 11.7687 13.0566 19.0417C13.0566 19.2069 13.0608 19.371 13.0678 19.5344C13.0746 19.6961 13.0215 19.8548 12.9219 19.9825L12.9117 19.9956C12.787 20.1554 12.5981 20.2497 12.3956 20.2608C6.02336 20.608 0.9766 25.9347 1.08673 32.4189C1.19802 38.9735 6.65119 44.1821 13.207 44.1821H63.195C68.4585 44.1821 72.846 39.995 72.9143 34.7319C72.9837 29.3843 68.6696 25.0275 63.3378 25.0275Z" fill="#ECF4FF"/>
<path d="M63.3379 25.0275H63.3346C63.1583 25.0275 63.0064 24.9088 62.957 24.7395C61.797 20.7557 58.1187 17.8445 53.7605 17.8445C53.1938 17.8445 52.6391 17.8949 52.0996 17.9896C55.7093 18.6218 58.6239 21.2744 59.6328 24.7395C59.6821 24.9088 59.834 25.0275 60.0105 25.0275H60.0138C65.3456 25.0275 69.6597 29.3843 69.5903 34.732C69.5221 39.9952 65.1347 44.1822 59.871 44.1822H63.1951C68.4587 44.1822 72.8461 39.9952 72.9145 34.732C72.9838 29.3843 68.6697 25.0275 63.3379 25.0275Z" fill="#DDEAFB"/>
<path d="M33.2052 39.3934H42.5223C43.3394 39.3934 43.9164 40.194 43.658 40.9692L39.9198 52.1838C39.6614 52.9591 40.2383 53.7596 41.0555 53.7596H43.4221C44.3172 53.7596 44.8957 54.7058 44.4877 55.5025L35.7275 72.6069C35.3988 73.1911 34.5051 72.8761 34.6153 72.2151L36.7555 59.9512C36.8833 59.2187 36.3196 58.5483 35.5761 58.5483H30.0627C29.3132 58.5483 28.7479 57.8672 28.8861 57.1304L32.0287 40.37C32.1347 39.8037 32.6291 39.3934 33.2052 39.3934Z" fill="#FFE07D"/>
<path d="M43.4222 53.7595H41.0556C40.2384 53.7595 39.6615 52.959 39.9199 52.1837L43.6581 40.9691C43.9165 40.1938 43.3396 39.3933 42.5224 39.3933H39.1983C40.0154 39.3933 40.5924 40.1938 40.334 40.9691L36.5958 52.1837C36.3373 52.959 36.9143 53.7595 37.7315 53.7595H40.0981C40.9932 53.7595 41.5717 54.7057 41.1637 55.5024L35.6547 66.2585L34.6153 72.2151C34.5052 72.8763 35.3988 73.1912 35.7274 72.6069L44.4878 55.5024C44.8958 54.7057 44.3173 53.7595 43.4222 53.7595Z" fill="#FFD064"/>
<path d="M63.8454 23.9553C63.5196 23.0042 63.0661 22.1207 62.5082 21.321L63.3375 21.3227C67.8959 21.3227 71.6045 17.6142 71.6045 13.0558C71.6045 8.49721 67.8959 4.78878 63.3375 4.78878C63.112 4.78878 62.8843 4.79846 62.6559 4.81768C60.7022 1.82827 57.3583 0 53.7601 0C49.1419 0 45.1385 2.92032 43.6962 7.21698C43.4664 7.19444 43.2355 7.18316 43.0042 7.18316C40.7309 7.18316 38.6162 8.29863 37.3069 10.0834C36.6635 9.28676 35.9339 8.55676 35.1288 7.91173C32.6147 5.89788 29.4527 4.78878 26.2251 4.78878C23.1486 4.78878 20.2189 5.75364 17.7531 7.57903C17.2719 7.93529 17.1706 8.61399 17.5266 9.09526C17.883 9.5764 18.5616 9.67757 19.0427 9.3216C21.1327 7.77443 23.6163 6.95683 26.225 6.95683C30.4779 6.95683 34.2766 9.13833 36.4388 12.5633L36.5726 12.7819C37.0628 13.5963 37.4613 14.4779 37.7538 15.4147C35.1874 16.8482 33.5212 19.5836 33.5212 22.6334C33.5212 23.2321 34.0064 23.7174 34.6051 23.7174C35.2039 23.7174 35.6891 23.2321 35.6891 22.6334C35.6891 20.1412 37.197 17.934 39.4442 17.0012C39.4409 17.0027 39.4475 16.9999 39.4442 17.0012C40.1856 16.6938 40.9808 16.5344 41.7882 16.5344C44.1346 16.5344 46.2999 17.9065 47.3043 20.0299C47.4406 20.3184 47.6975 20.5322 48.0057 20.6141C48.3139 20.6959 48.643 20.6381 48.9047 20.4551C50.3347 19.4566 52.0135 18.9288 53.7598 18.9288C57.641 18.9288 61.0243 21.5506 61.9873 25.3048C62.1132 25.7963 62.5574 26.1336 63.071 26.1189C63.071 26.1189 63.2729 26.1118 63.3372 26.1118C68.0205 26.1118 71.8307 29.922 71.8307 34.6052C71.8307 39.2885 68.0206 43.0987 63.3372 43.0987C58.6538 43.0987 54.8438 39.2885 54.8438 34.6052C54.8438 34.0066 54.3586 33.5213 53.7598 33.5213C53.161 33.5213 52.6759 34.0066 52.6759 34.6052C52.6759 38.0684 54.3366 41.15 56.9024 43.0987H44.0901L44.6855 41.3125C44.9167 40.6188 44.7995 39.8506 44.372 39.2573C43.9445 38.6642 43.2527 38.3099 42.5213 38.3099H33.2042C32.1071 38.3099 31.1644 39.0925 30.9622 40.1706L30.4131 43.0986H19.7191C19.1203 43.0986 18.6351 43.5839 18.6351 44.1825C18.6351 44.7811 19.1203 45.2665 19.7191 45.2665H30.0071L27.8201 56.931C27.6946 57.6002 27.8719 58.2844 28.3068 58.8083C28.7415 59.3322 29.3813 59.6327 30.0621 59.6327H35.5755C35.5886 59.6327 35.6283 59.6327 35.6624 59.673C35.6962 59.7133 35.6894 59.7523 35.6871 59.7653L33.5458 72.0373C33.4089 72.8581 33.8614 73.6244 34.646 73.9008C34.837 73.9682 35.0308 74.0006 35.2207 74.0006C35.8111 74.0006 36.363 73.6875 36.6717 73.139C36.6787 73.1268 36.6855 73.1142 36.692 73.1016L45.4521 55.9971C45.8172 55.2843 45.7859 54.4506 45.3681 53.7673C44.9503 53.084 44.2229 52.676 43.4219 52.676H41.0553C41.0408 52.676 40.9973 52.676 40.9633 52.629C40.9295 52.582 40.9433 52.5405 40.9479 52.527L43.368 45.2666H63.3375C69.2162 45.2666 73.9989 40.4839 73.9989 34.6052C73.9989 28.8961 69.4893 24.2211 63.8454 23.9553ZM48.6701 18.054C47.1514 15.7815 44.5637 14.366 41.7885 14.366C41.1034 14.366 40.4299 14.449 39.7749 14.6135C39.4828 13.7223 39.1002 12.8634 38.6398 12.0483C39.4603 10.418 41.155 9.35093 43.0042 9.35093C43.4102 9.35093 43.8146 9.40123 44.2061 9.50023C44.4879 9.57148 44.7873 9.52653 45.0357 9.37521C45.2843 9.22389 45.4615 8.97906 45.5275 8.69565C46.4243 4.85222 49.8094 2.16791 53.7601 2.16791C56.3473 2.16791 58.7696 3.35622 60.3604 5.34073C57.2194 6.54551 55.0704 9.57481 55.0704 13.0556C55.0704 13.6542 55.5556 14.1396 56.1543 14.1396C56.7531 14.1396 57.2383 13.6542 57.2383 13.0556C57.2383 10.0918 59.3485 7.5705 62.2586 7.05193C62.266 7.05078 62.9906 6.95655 63.3374 6.95655C66.7005 6.95655 69.4364 9.6926 69.4364 13.0556C69.4364 16.4186 66.7004 19.1547 63.3395 19.1547L60.4874 19.1489C58.6352 17.6441 56.2818 16.7604 53.76 16.7604C51.9651 16.7604 50.2268 17.2047 48.6701 18.054ZM38.891 51.8409C38.6597 52.5346 38.7769 53.3029 39.2044 53.8961C39.632 54.4892 40.3238 54.8434 41.0551 54.8434H43.4218C43.4408 54.8434 43.4851 54.8434 43.5183 54.8976C43.5514 54.9517 43.5312 54.9913 43.5223 55.0084L36.2345 69.238L37.8226 60.1378C37.9387 59.4727 37.7561 58.7947 37.3217 58.2779C36.8871 57.7609 36.2507 57.4645 35.5754 57.4645H30.0619C30.0488 57.4645 30.0089 57.4645 29.9748 57.4235C29.9409 57.3826 29.9482 57.3433 29.9506 57.3303L32.3748 44.4015C32.3749 44.4007 32.3751 44.4002 32.3752 44.3994L33.0932 40.5699C33.1031 40.5164 33.15 40.4777 33.2045 40.4777H42.5216C42.5361 40.4777 42.5796 40.4777 42.6136 40.5247C42.6474 40.5716 42.6336 40.613 42.629 40.6267L41.552 43.858C41.5517 43.8591 41.5513 43.8599 41.551 43.8609L38.891 51.8409Z" fill="#252525"/>
<path d="M15.3836 43.0982H13.0566C7.05305 43.0982 2.16889 38.214 2.16889 32.2105C2.16889 26.2106 7.04742 21.3286 13.0459 21.3226C13.0664 21.3234 13.0868 21.3239 13.1073 21.3241C13.1079 21.3241 13.1083 21.3239 13.1089 21.3239C19.0884 21.3523 23.9444 26.2244 23.9444 32.2103C23.9444 32.809 24.4296 33.2943 25.0284 33.2943C25.6272 33.2943 26.1123 32.809 26.1123 32.2103C26.1123 25.3776 20.8362 19.7549 14.1443 19.2002C14.1436 19.1475 14.1407 19.0936 14.1407 19.0414C14.1407 16.5675 14.8827 14.1896 16.2866 12.1646C16.6276 11.6727 16.5054 10.9973 16.0133 10.6562C15.5211 10.315 14.846 10.4374 14.5048 10.9295C12.8483 13.3188 11.9726 16.1238 11.9726 19.0413C11.9726 19.0936 11.9729 19.1462 11.9735 19.1989C5.27956 19.7512 0.000976562 25.3759 0.000976562 32.21C0.000976562 39.409 5.85767 45.2656 13.0566 45.2656H15.3838C15.9824 45.2656 16.4677 44.7803 16.4677 44.1817C16.4676 43.5835 15.9824 43.0982 15.3836 43.0982Z" fill="#252525"/>
<path d="M5.87351 47.8867C5.27473 47.8867 4.78955 48.372 4.78955 48.9707V58.5481C4.78955 59.1467 5.27473 59.632 5.87351 59.632C6.47229 59.632 6.95746 59.1467 6.95746 58.5481V48.9707C6.95746 48.372 6.47229 47.8867 5.87351 47.8867Z" fill="#252525"/>
<path d="M21.4365 47.8867C20.8377 47.8867 20.3525 48.372 20.3525 48.9707V58.5481C20.3525 59.1467 20.8377 59.632 21.4365 59.632C22.0353 59.632 22.5205 59.1467 22.5205 58.5481V48.9707C22.5205 48.372 22.0353 47.8867 21.4365 47.8867Z" fill="#252525"/>
<path d="M13.6552 62.2528C13.0565 62.2528 12.5713 62.7381 12.5713 63.3368V72.9142C12.5713 73.5128 13.0565 73.9981 13.6552 73.9981C14.254 73.9981 14.7392 73.5128 14.7392 72.9142V63.3368C14.7392 62.7381 14.254 62.2528 13.6552 62.2528Z" fill="#252525"/>
<path d="M52.5634 47.8867C51.9647 47.8867 51.4795 48.372 51.4795 48.9707V58.5481C51.4795 59.1467 51.9647 59.632 52.5634 59.632C53.1622 59.632 53.6474 59.1467 53.6474 58.5481V48.9707C53.6474 48.372 53.1622 47.8867 52.5634 47.8867Z" fill="#252525"/>
<path d="M68.1264 47.8867C67.5277 47.8867 67.0425 48.372 67.0425 48.9707V58.5481C67.0425 59.1467 67.5277 59.632 68.1264 59.632C68.7252 59.632 69.2104 59.1467 69.2104 58.5481V48.9707C69.2104 48.372 68.7251 47.8867 68.1264 47.8867Z" fill="#252525"/>
<path d="M60.3447 62.2528C59.7459 62.2528 59.2607 62.7381 59.2607 63.3368V72.9142C59.2607 73.5128 59.7459 73.9981 60.3447 73.9981C60.9435 73.9981 61.4287 73.5128 61.4287 72.9142V63.3368C61.4287 62.7381 60.9435 62.2528 60.3447 62.2528Z" fill="#252525"/>
</g>
<defs>
<clipPath id="clip0_2053_374">
<rect width="74" height="74" fill="white"/>
</clipPath>
</defs>
</svg>
