<svg width="68" height="68" viewBox="0 0 68 68" fill="none" xmlns="http://www.w3.org/2000/svg">
<rect width="68" height="68" rx="16" fill="white"/>
<path d="M34.9288 26.9799C34.9442 26.7008 35.1952 26.4864 35.4894 26.5009C36.5904 26.5554 37.5064 26.8715 38.1588 27.5112C38.8087 28.1485 39.1273 29.0387 39.1832 30.1079C39.1978 30.387 38.9711 30.6245 38.6768 30.6384C38.3824 30.6522 38.132 30.4372 38.1174 30.158C38.0695 29.2428 37.8048 28.6197 37.3918 28.2148C36.9813 27.8122 36.3548 27.5572 35.4339 27.5116C35.1396 27.497 34.9135 27.259 34.9288 26.9799Z" fill="#7360F2"/>
<path d="M34.9221 23.7863C34.6355 23.7211 34.3475 23.8885 34.2787 24.1602C34.21 24.432 34.3865 24.7052 34.673 24.7704C34.8862 24.8189 35.1023 24.8645 35.3201 24.9104C36.417 25.1418 37.555 25.3818 38.5555 26.0469C39.7043 26.8106 40.7216 28.1866 41.0035 30.9934C41.0314 31.2716 41.2919 31.4756 41.5852 31.4492C41.8786 31.4227 42.0937 31.1756 42.0658 30.8974C41.7618 27.8706 40.6311 26.1908 39.168 25.2182C37.9766 24.4262 36.5956 24.1385 35.4999 23.9102C35.2964 23.8678 35.1028 23.8274 34.9221 23.7863Z" fill="#7360F2"/>
<path d="M33.1786 21.6622C33.1807 21.3828 33.4212 21.1578 33.7159 21.1598C36.8123 21.1802 39.4295 22.1578 41.5309 24.1006C43.6499 26.0596 44.6978 28.7266 44.7244 32.039C44.7266 32.3185 44.4895 32.5468 44.1949 32.5489C43.9002 32.551 43.6595 32.3262 43.6573 32.0467C43.6324 28.9429 42.6587 26.5566 40.786 24.8253C38.8958 23.0777 36.5488 22.1905 33.7084 22.1717C33.4138 22.1698 33.1766 21.9417 33.1786 21.6622Z" fill="#7360F2"/>
<path d="M36.7215 36.4989C36.3177 36.9707 35.5677 36.9107 35.5677 36.9107C30.0859 35.5835 28.6188 30.3175 28.6188 30.3175C28.6188 30.3175 28.553 29.6063 29.053 29.2233L30.0435 28.4766C30.5347 28.1176 30.848 27.2467 30.348 26.3961C29.9644 25.7577 29.5475 25.1378 29.0986 24.5389C28.6625 23.9741 27.6466 22.8174 27.6429 22.8138C27.153 22.2658 26.4327 22.1385 25.6732 22.5137C25.6709 22.5137 25.6677 22.5147 25.6647 22.5156C25.6619 22.5165 25.6592 22.5173 25.6574 22.5173C24.902 22.9301 24.2208 23.4545 23.6396 24.0707C23.6376 24.0745 23.6357 24.0763 23.6337 24.0781C23.6319 24.0797 23.63 24.0814 23.6282 24.0845C23.159 24.6216 22.8904 25.148 22.8225 25.6638C22.8084 25.7399 22.8035 25.8172 22.808 25.8943C22.8054 26.1221 22.842 26.3487 22.9162 26.5654L22.9421 26.5822C23.1788 27.3793 23.7713 28.7071 25.0586 30.9208C25.795 32.2012 26.6442 33.4203 27.5973 34.5649C28.0748 35.1387 28.5866 35.686 29.1302 36.2042C29.1368 36.2104 29.1433 36.2166 29.1497 36.2228C29.1626 36.2352 29.1754 36.2474 29.1884 36.2594L29.3631 36.4251C29.9095 36.9407 30.4866 37.4261 31.0916 37.8789C32.2987 38.7829 33.5843 39.5883 34.9348 40.2865C37.2683 41.5074 38.6696 42.0693 39.5089 42.2938L39.5266 42.3184C39.755 42.3889 39.994 42.4238 40.2342 42.4216C40.3155 42.4253 40.3971 42.4205 40.4773 42.4072C41.022 42.346 41.5766 42.0917 42.1412 41.6443C42.1445 41.6426 42.1463 41.6408 42.148 41.6391C42.1499 41.6372 42.1518 41.6354 42.1558 41.6335C42.8056 41.0821 43.3587 40.4362 43.7944 39.7199C43.7944 39.7181 43.7951 39.7156 43.7959 39.7129C43.7967 39.71 43.7976 39.7071 43.7976 39.7049C44.1931 38.9846 44.059 38.3015 43.4779 37.8363C43.4772 37.8363 43.4298 37.7993 43.3496 37.7366C43.0203 37.4793 42.1379 36.7897 41.6589 36.4557C41.0281 36.03 40.3751 35.6346 39.7026 35.2708C38.8051 34.7966 37.8886 35.0937 37.5088 35.5595L36.7215 36.4989Z" fill="#7360F2"/>
<path fill-rule="evenodd" clip-rule="evenodd" d="M49.4849 17.9015C48.4368 16.9843 44.2012 14.0683 34.7669 14.0287C34.7669 14.0287 23.6414 13.3924 18.2179 18.1104C15.1988 20.9742 14.1368 25.1646 14.0248 30.3597C13.9127 35.5549 13.7678 45.291 23.6635 47.9309H23.673L23.6667 51.9592C23.6667 51.9592 23.6034 53.59 24.7357 53.9226C25.8788 54.2592 26.6277 53.4516 27.6043 52.3985L27.6048 52.398C27.7982 52.1894 28.0006 51.9711 28.2168 51.7503C28.9345 51.0168 29.9257 49.9393 30.6725 49.1158C37.4404 49.656 42.6455 48.4213 43.2367 48.2388C43.3587 48.2013 43.5314 48.1596 43.7458 48.1079C45.9323 47.5807 52.4479 46.0095 53.5932 37.1438C54.8913 27.1094 52.9653 20.7623 49.4849 17.9015ZM50.6317 36.4241C49.676 43.7431 44.4962 44.8862 42.6298 45.298C42.4234 45.3436 42.2575 45.3802 42.1423 45.4152C41.6506 45.5653 37.079 46.6439 31.3301 46.288C31.3301 46.288 27.0465 51.189 25.7085 52.4634C25.4996 52.6627 25.2541 52.7431 25.0901 52.7035C24.8598 52.65 24.7965 52.3913 24.799 52.0132C24.8028 51.473 24.8357 45.3192 24.8357 45.3192C16.7413 43.1879 16.9301 35.3696 17.0372 30.9321C17.0409 30.7805 17.0445 30.6327 17.0476 30.4894C17.1425 26.1502 18.002 22.5955 20.5553 20.2047C25.1427 16.264 34.5928 16.8529 34.5928 16.8529C42.5734 16.8859 46.3975 19.1651 47.2842 19.9286C50.2286 22.3194 51.7286 28.0404 50.6317 36.4217V36.4241Z" fill="#7360F2"/>
</svg>
