<svg width="68" height="68" viewBox="0 0 68 68" fill="none" xmlns="http://www.w3.org/2000/svg">
<rect width="68" height="68" rx="16" fill="white"/>
<path fill-rule="evenodd" clip-rule="evenodd" d="M46.4516 21.3894C43.1257 18.0592 38.7022 16.2243 33.9891 16.2227C24.2773 16.2227 16.3734 24.1257 16.37 33.8399C16.3683 36.9453 17.1802 39.9765 18.7219 42.6477L16.2222 51.7782L25.5623 49.3283C28.1355 50.7324 31.0332 51.4715 33.9816 51.4724H33.9891C43.6992 51.4724 51.6041 43.5685 51.6075 33.8543C51.6091 29.1463 49.7784 24.7204 46.4516 21.3902V21.3894ZM33.9891 48.4971H33.9832C31.3559 48.4963 28.7784 47.7899 26.5296 46.456L25.9948 46.1384L20.4521 47.5923L21.9313 42.1881L21.5833 41.6339C20.1175 39.3024 19.3429 36.6074 19.3445 33.8408C19.3479 25.7671 25.9171 19.198 33.9951 19.198C37.9065 19.1997 41.5831 20.7246 44.3481 23.4929C47.1131 26.2605 48.6346 29.9404 48.6329 33.8526C48.6295 41.9272 42.0604 48.4963 33.9891 48.4963V48.4971ZM42.0215 37.53C41.5813 37.3095 39.417 36.245 39.0131 36.0981C38.6094 35.951 38.3163 35.8776 38.023 36.3185C37.7299 36.7596 36.886 37.7513 36.6292 38.0444C36.3723 38.3384 36.1155 38.3748 35.6753 38.1542C35.2353 37.9338 33.8168 37.4691 32.1348 35.9696C30.8263 34.8021 29.9425 33.361 29.6858 32.9199C29.4289 32.479 29.6588 32.2407 29.8783 32.0219C30.076 31.8243 30.3185 31.5075 30.539 31.2506C30.7595 30.9938 30.8322 30.8097 30.9791 30.5165C31.1262 30.2225 31.0526 29.9658 30.9428 29.7452C30.833 29.5247 29.9527 27.3578 29.5852 26.4767C29.2278 25.6184 28.8646 25.735 28.5951 25.7206C28.3383 25.708 28.0452 25.7054 27.7512 25.7054C27.4572 25.7054 26.9807 25.8153 26.5769 26.2562C26.1731 26.6972 25.036 27.7625 25.036 29.9285C25.036 32.0946 26.6133 34.1889 26.8337 34.4828C27.0542 34.7768 29.9383 39.223 34.3541 41.1305C35.4042 41.5841 36.2245 41.8553 36.864 42.0581C37.9184 42.3934 38.878 42.3462 39.6366 42.2329C40.4823 42.1062 42.2412 41.1677 42.6078 40.1395C42.9744 39.1114 42.9744 38.2294 42.8646 38.0461C42.7548 37.8628 42.4609 37.7521 42.0207 37.5317L42.0215 37.53Z" fill="#25D366"/>
</svg>
